<svg xmlns="http://www.w3.org/2000/svg" xmlns:xlink="http://www.w3.org/1999/xlink" width="558" height="138" viewBox="0 0 558 138">
  <defs>
    <style>
      .cls-1 {
        clip-path: url(#clip-brain);
      }

      .cls-2 {
        fill: #fff;
      }

      .cls-3 {
        fill: #dd62c0;
      }
    </style>
    <clipPath id="clip-brain">
      <rect width="558" height="138"/>
    </clipPath>
  </defs>
  <g id="brain" class="cls-1">
    <g id="Group_131" data-name="Group 131" transform="translate(-590 -126.103)">
      <path id="Path_193" data-name="Path 193" class="cls-2" d="M27.16,16.18a7.352,7.352,0,0,1,1.785,2.555,7.519,7.519,0,0,1,.42,4.55A11.047,11.047,0,0,1,28.875,25a6.891,6.891,0,0,1-.805,1.54,3.186,3.186,0,0,1-1.19,1.05l-.91.91,1.12.56a12.733,12.733,0,0,1,5.25,4.725A12.31,12.31,0,0,1,34.23,40.4a11.8,11.8,0,0,1-1.015,4.865,13.117,13.117,0,0,1-6.72,6.72A11.8,11.8,0,0,1,21.63,53H7.91a7.761,7.761,0,0,1-5.39-2.1l-.21-.21A7.626,7.626,0,0,1,0,45.09V21.78a7.626,7.626,0,0,1,2.31-5.6l.21-.21a7.761,7.761,0,0,1,5.39-2.1H21.63a7.761,7.761,0,0,1,5.39,2.1ZM4.27,49.92a5.97,5.97,0,0,0,3.64,1.19H21.63a10.206,10.206,0,0,0,4.06-.84,11.143,11.143,0,0,0,3.43-2.275,10.9,10.9,0,0,0,2.345-3.4,10.185,10.185,0,0,0,.875-4.2,10.375,10.375,0,0,0-.84-4.13,10.837,10.837,0,0,0-2.31-3.43,10.95,10.95,0,0,0-3.4-2.31,10.127,10.127,0,0,0-4.095-.84H1.89v15.4a5.81,5.81,0,0,0,1.75,4.27l.63.63Zm0-33.04-.63.63a5.81,5.81,0,0,0-1.75,4.27V27.8H21.7a5.824,5.824,0,0,0,2.275-.455,5.575,5.575,0,0,0,1.89-1.3,6.81,6.81,0,0,0,1.295-1.925,5.63,5.63,0,0,0,.49-2.345,5.81,5.81,0,0,0-1.75-4.27l-.63-.63-.07.07a5.867,5.867,0,0,0-3.57-1.19H7.91a5.97,5.97,0,0,0-3.64,1.19ZM40.6,35.36a11.939,11.939,0,0,1,1.05-4.62,13.128,13.128,0,0,1,2.59-3.815,11.893,11.893,0,0,1,8.47-3.535h3.78a12.082,12.082,0,0,1,4.655.91,11.323,11.323,0,0,1,3.885,2.66.737.737,0,0,1,.28.63q0,.98-.91.98a.95.95,0,0,1-.7-.28,11.319,11.319,0,0,0-3.325-2.2,9.657,9.657,0,0,0-3.885-.805H52.71a9.413,9.413,0,0,0-3.85.805,10.87,10.87,0,0,0-3.22,2.17A10.621,10.621,0,0,0,43.4,31.44a9.91,9.91,0,0,0-.91,3.85V52.02q0,.98-.91.98a.866.866,0,0,1-.98-.98V35.43ZM83.86,23.39a11.694,11.694,0,0,1,4.655.945,12.586,12.586,0,0,1,3.885,2.59,12.355,12.355,0,0,1,2.66,3.85,11.5,11.5,0,0,1,.98,4.725v5.39a11.5,11.5,0,0,1-.98,4.725,12.355,12.355,0,0,1-2.66,3.85,12.586,12.586,0,0,1-3.885,2.59A11.694,11.694,0,0,1,83.86,53H76.09a9.23,9.23,0,0,1-3.675-.735,9.511,9.511,0,0,1-5.04-5.04,9.555,9.555,0,0,1,0-7.35A9.109,9.109,0,0,1,69.4,36.9a9.82,9.82,0,0,1,3.01-2,9.23,9.23,0,0,1,3.675-.735H94.08l-.28-1.12a10.057,10.057,0,0,0-1.365-3.115,9.912,9.912,0,0,0-2.275-2.45,11.234,11.234,0,0,0-2.94-1.61,9.615,9.615,0,0,0-3.36-.595H71.47a.8.8,0,0,1-.91-.91q0-.98.91-.98H83.86Zm0,27.72a9.715,9.715,0,0,0,3.99-.84A10.378,10.378,0,0,0,91.1,48.03a10.741,10.741,0,0,0,2.17-3.255,9.657,9.657,0,0,0,.805-3.885V36.06H76.09a7.364,7.364,0,0,0-2.975.6,7.582,7.582,0,0,0-3.99,3.99,7.191,7.191,0,0,0-.6,2.9,7.364,7.364,0,0,0,.6,2.975,7.582,7.582,0,0,0,3.99,3.99,7.364,7.364,0,0,0,2.975.6h7.77Zm19.67-26.39a.866.866,0,0,1,.98-.98q.91,0,.91.98V52.09a.8.8,0,0,1-.91.91q-.98,0-.98-.91Zm.98-9.24a1.2,1.2,0,1,1-.91.35A1.231,1.231,0,0,1,104.51,15.48ZM144.2,52.02a.866.866,0,0,1-.98.98q-.91,0-.91-.98V35.5a9.476,9.476,0,0,0-.84-3.955,10.943,10.943,0,0,0-2.24-3.255,10.428,10.428,0,0,0-3.255-2.2,9.657,9.657,0,0,0-3.885-.805H126.7a9.657,9.657,0,0,0-3.885.805,10.3,10.3,0,0,0-3.22,2.17,10.949,10.949,0,0,0-2.2,3.185,9.91,9.91,0,0,0-.91,3.85V52.02q0,.98-.91.98a.866.866,0,0,1-.98-.98V35.36a11.939,11.939,0,0,1,1.05-4.62,13.127,13.127,0,0,1,2.59-3.815,11.893,11.893,0,0,1,8.47-3.535h5.39a11.335,11.335,0,0,1,4.655.98,12.99,12.99,0,0,1,3.85,2.59,12.223,12.223,0,0,1,2.625,3.815,11.171,11.171,0,0,1,.98,4.585V52.02Zm23.1-21.91a15.927,15.927,0,0,1,1.4-6.3,16.907,16.907,0,0,1,8.785-8.645,15.53,15.53,0,0,1,6.265-1.3h6.93a.8.8,0,0,1,.91.91q0,.98-.91.98h-6.93a13.835,13.835,0,0,0-5.635,1.155,15.04,15.04,0,0,0-7.77,7.77,13.835,13.835,0,0,0-1.155,5.635V40.47h21.49q.91,0,.91.98a.8.8,0,0,1-.91.91H169.19v9.73q0,.91-.98.91a.8.8,0,0,1-.91-.91V30.11Zm49.98-6.72a11.335,11.335,0,0,1,4.655.98,12.533,12.533,0,0,1,6.475,6.475,11.335,11.335,0,0,1,.98,4.655v5.39a11.335,11.335,0,0,1-.98,4.655,12.533,12.533,0,0,1-6.475,6.475,11.335,11.335,0,0,1-4.655.98h-5.39a11.335,11.335,0,0,1-4.655-.98,12.533,12.533,0,0,1-6.475-6.475,11.335,11.335,0,0,1-.98-4.655V35.5a11.335,11.335,0,0,1,.98-4.655,12.533,12.533,0,0,1,6.475-6.475,11.335,11.335,0,0,1,4.655-.98Zm-5.39,1.89a9.657,9.657,0,0,0-3.885.805,10.741,10.741,0,0,0-3.255,2.17,10.379,10.379,0,0,0-2.24,3.255,9.716,9.716,0,0,0-.84,3.99v5.39a9.657,9.657,0,0,0,.805,3.885,10.428,10.428,0,0,0,2.2,3.255,10.943,10.943,0,0,0,3.255,2.24,9.476,9.476,0,0,0,3.955.84h5.39a9.827,9.827,0,0,0,3.955-.805,10.409,10.409,0,0,0,5.46-5.46,9.827,9.827,0,0,0,.805-3.955V35.5a9.476,9.476,0,0,0-.84-3.955,10.943,10.943,0,0,0-2.24-3.255,10.428,10.428,0,0,0-3.255-2.2,9.657,9.657,0,0,0-3.885-.805Zm42.21-1.89a11.335,11.335,0,0,1,4.655.98,12.533,12.533,0,0,1,6.475,6.475,11.335,11.335,0,0,1,.98,4.655v5.39a11.334,11.334,0,0,1-.98,4.655,12.533,12.533,0,0,1-6.475,6.475A11.335,11.335,0,0,1,254.1,53h-5.39a11.335,11.335,0,0,1-4.655-.98,12.533,12.533,0,0,1-6.475-6.475,11.335,11.335,0,0,1-.98-4.655V35.5a11.335,11.335,0,0,1,.98-4.655,12.533,12.533,0,0,1,6.475-6.475,11.335,11.335,0,0,1,4.655-.98Zm-5.39,1.89a9.657,9.657,0,0,0-3.885.805,10.741,10.741,0,0,0-3.255,2.17,10.379,10.379,0,0,0-2.24,3.255,9.716,9.716,0,0,0-.84,3.99v5.39a9.657,9.657,0,0,0,.805,3.885,10.428,10.428,0,0,0,2.2,3.255,10.943,10.943,0,0,0,3.255,2.24,9.476,9.476,0,0,0,3.955.84h5.39a9.827,9.827,0,0,0,3.955-.805,10.409,10.409,0,0,0,5.46-5.46,9.827,9.827,0,0,0,.8-3.955V35.5a9.476,9.476,0,0,0-.84-3.955,10.942,10.942,0,0,0-2.24-3.255,10.428,10.428,0,0,0-3.255-2.2,9.657,9.657,0,0,0-3.885-.805Zm53.9,15.75a11.893,11.893,0,0,1-3.535,8.47,12.584,12.584,0,0,1-3.815,2.555,11.445,11.445,0,0,1-4.62.945h-5.25a11.694,11.694,0,0,1-4.655-.945,11.831,11.831,0,0,1-6.37-6.37,11.693,11.693,0,0,1-.945-4.655V35.22a11.445,11.445,0,0,1,.945-4.62,12.585,12.585,0,0,1,2.555-3.815,11.893,11.893,0,0,1,8.47-3.535h5.25a12.166,12.166,0,0,1,4.62.91,10.991,10.991,0,0,1,3.85,2.59l1.61,1.68V14.29a.866.866,0,0,1,.98-.98q.91,0,.91.98Zm-1.89-6.02a8.848,8.848,0,0,0-.84-3.815,11.1,11.1,0,0,0-2.2-3.15,10.1,10.1,0,0,0-7.035-2.905h-5.25a9.581,9.581,0,0,0-3.92.805,10.347,10.347,0,0,0-5.355,5.355,9.581,9.581,0,0,0-.8,3.92v5.81a9.581,9.581,0,0,0,.8,3.92,10.347,10.347,0,0,0,5.355,5.355,9.581,9.581,0,0,0,3.92.805h5.25a9.581,9.581,0,0,0,3.92-.805,10.347,10.347,0,0,0,5.355-5.355,9.581,9.581,0,0,0,.8-3.92V35.01Z" transform="translate(768 162.103)"/>
      <g id="brain-2" data-name="brain" transform="translate(656 148.5)">
        <g id="Group_106" data-name="Group 106" transform="translate(48.043 14.769)">
          <g id="Group_105" data-name="Group 105">
            <path id="Path_177" data-name="Path 177" class="cls-3" d="M297.779,83a1.779,1.779,0,1,0,1.779,1.779A1.78,1.78,0,0,0,297.779,83Z" transform="translate(-296 -83)"/>
          </g>
        </g>
        <g id="Group_108" data-name="Group 108" transform="translate(30.249 14.769)">
          <g id="Group_107" data-name="Group 107">
            <path id="Path_178" data-name="Path 178" class="cls-3" d="M197.779,83a1.779,1.779,0,1,0,1.779,1.779A1.78,1.78,0,0,0,197.779,83Z" transform="translate(-196 -83)"/>
          </g>
        </g>
        <g id="Group_110" data-name="Group 110">
          <g id="Group_109" data-name="Group 109">
            <path id="Path_179" data-name="Path 179" class="cls-3" d="M105.559,53.182a14.23,14.23,0,0,0,2.291-7.63,12.359,12.359,0,0,0-4.507-9.561,12.028,12.028,0,0,0,.949-4.674A13.263,13.263,0,0,0,97.1,19.587,10.664,10.664,0,0,0,89,7.95,12.819,12.819,0,0,0,77.6,0,12.5,12.5,0,0,0,66.925,6.409,12.5,12.5,0,0,0,56.249,0a12.818,12.818,0,0,0-11.4,7.95,10.663,10.663,0,0,0-8.1,11.637,13.263,13.263,0,0,0-7.193,11.729,12.028,12.028,0,0,0,.949,4.674A12.359,12.359,0,0,0,26,45.551a14.228,14.228,0,0,0,2.291,7.63,12.284,12.284,0,0,0,1.427,15.95c-1.221,7.383,4.667,14.854,12.3,14.854l.163,0a14.028,14.028,0,0,0,24.748-.619,14.028,14.028,0,0,0,24.748.619l.163,0c6.752,0,12.455-5.948,12.455-12.989a11.39,11.39,0,0,0-.16-1.865,12.284,12.284,0,0,0,1.427-15.949ZM65.146,26.936a7.071,7.071,0,0,0-3.559-.957,1.779,1.779,0,1,0,0,3.559A3.563,3.563,0,0,1,65.146,33.1V66.934A14.2,14.2,0,0,0,54.47,62.1a1.779,1.779,0,1,0,0,3.559A10.688,10.688,0,0,1,65.146,76.334c0,6.076-4.889,11.21-10.676,11.21a10.706,10.706,0,0,1-9.662-6.206,1.78,1.78,0,0,0-1.815-1.019c-.126.014-.251.031-.376.048-5.064.693-10.767-5.042-9.223-11.457a1.779,1.779,0,0,0-.592-1.784,8.858,8.858,0,0,1-3.243-6.807,8.756,8.756,0,0,1,1.306-4.579,12.006,12.006,0,0,0,7.591,2.8,1.779,1.779,0,0,0,0-3.559c-4.829,0-8.9-4.407-8.9-9.431a8.847,8.847,0,0,1,4.155-7.5,1.779,1.779,0,0,0,.6-2.381,8.756,8.756,0,0,1-1.192-4.356c0-4.8,3.915-9.431,8.9-9.431,4.739,0,8.9,4.407,8.9,9.431a1.779,1.779,0,0,0,3.559,0c0-7.041-5.7-12.989-12.455-12.989a11.538,11.538,0,0,0-1.775.14c0-.047,0-.092,0-.14a7.118,7.118,0,0,1,12.152-5.033A1.779,1.779,0,0,0,54.9,10.777a10.6,10.6,0,0,0-5.9-3,8.989,8.989,0,0,1,7.249-4.22c4.739,0,8.9,4.407,8.9,9.431Zm30.249,31.6a12.009,12.009,0,0,0,7.591-2.8,8.756,8.756,0,0,1,1.306,4.578,8.858,8.858,0,0,1-3.243,6.807,1.779,1.779,0,0,0-.592,1.784A8.78,8.78,0,0,1,100.733,71c0,5.523-5,9.987-9.5,9.371-.125-.017-.25-.034-.376-.048a1.778,1.778,0,0,0-1.815,1.019,10.706,10.706,0,0,1-9.662,6.206c-5.787,0-10.676-5.134-10.676-11.21A10.688,10.688,0,0,1,79.381,65.658a1.779,1.779,0,0,0,0-3.559A14.2,14.2,0,0,0,68.7,66.934V33.1a3.563,3.563,0,0,1,3.559-3.559,1.779,1.779,0,1,0,0-3.559,7.071,7.071,0,0,0-3.559.957V12.989c0-5.024,4.157-9.431,8.9-9.431a8.989,8.989,0,0,1,7.249,4.22,10.6,10.6,0,0,0-5.9,3,1.779,1.779,0,1,0,2.515,2.518,7.119,7.119,0,0,1,12.152,5.033c0,.047,0,.093,0,.14a11.538,11.538,0,0,0-1.775-.14c-6.752,0-12.455,5.948-12.455,12.989a1.779,1.779,0,1,0,3.559,0c0-5.024,4.157-9.431,8.9-9.431,4.979,0,8.9,4.626,8.9,9.431a8.756,8.756,0,0,1-1.192,4.356,1.779,1.779,0,0,0,.6,2.381,8.847,8.847,0,0,1,4.155,7.5c0,5.041-4.082,9.431-8.9,9.431a1.779,1.779,0,1,0,0,3.559Z" transform="translate(-26)"/>
          </g>
        </g>
        <g id="Group_112" data-name="Group 112" transform="translate(14.235 29.537)">
          <g id="Group_111" data-name="Group 111">
            <path id="Path_180" data-name="Path 180" class="cls-3" d="M126.9,174.55a1.779,1.779,0,0,0-2.512-.14,8.913,8.913,0,0,1-14.828-6.631,1.779,1.779,0,1,0-3.559,0,12.474,12.474,0,0,0,10.427,12.288,5.348,5.348,0,0,1-5.089,3.726,1.779,1.779,0,1,0,0,3.559,8.91,8.91,0,0,0,8.737-7.225,12.435,12.435,0,0,0,6.684-3.065A1.779,1.779,0,0,0,126.9,174.55Z" transform="translate(-106 -166)"/>
          </g>
        </g>
        <g id="Group_114" data-name="Group 114" transform="translate(14.235 69.217)">
          <g id="Group_113" data-name="Group 113">
            <path id="Path_181" data-name="Path 181" class="cls-3" d="M107.779,389a1.779,1.779,0,1,0,0,3.559c4.739,0,8.9,4.407,8.9,9.431a1.779,1.779,0,1,0,3.559,0C120.235,394.948,114.531,389,107.779,389Z" transform="translate(-106 -389)"/>
          </g>
        </g>
        <g id="Group_116" data-name="Group 116" transform="translate(16.085 54.982)">
          <g id="Group_115" data-name="Group 115">
            <path id="Path_182" data-name="Path 182" class="cls-3" d="M130.562,309a15.981,15.981,0,0,0-13.932,8.115,1.779,1.779,0,1,0,3.1,1.755,12.428,12.428,0,0,1,10.836-6.312,1.779,1.779,0,0,0,0-3.559Z" transform="translate(-116.398 -309)"/>
          </g>
        </g>
        <g id="Group_118" data-name="Group 118" transform="translate(46.263 29.537)">
          <g id="Group_117" data-name="Group 117">
            <path id="Path_183" data-name="Path 183" class="cls-3" d="M302.014,183.794a5.348,5.348,0,0,1-5.089-3.726,12.474,12.474,0,0,0,10.427-12.288,1.779,1.779,0,1,0-3.559,0,8.9,8.9,0,0,1-14.828,6.631,1.779,1.779,0,0,0-2.373,2.652,12.436,12.436,0,0,0,6.684,3.065,8.91,8.91,0,0,0,8.737,7.225,1.779,1.779,0,1,0,0-3.559Z" transform="translate(-286 -166)"/>
          </g>
        </g>
        <g id="Group_120" data-name="Group 120" transform="translate(53.381 69.217)">
          <g id="Group_119" data-name="Group 119">
            <path id="Path_184" data-name="Path 184" class="cls-3" d="M338.455,389C331.7,389,326,394.948,326,401.989a1.779,1.779,0,0,0,3.559,0c0-5.024,4.157-9.431,8.9-9.431a1.779,1.779,0,1,0,0-3.559Z" transform="translate(-326 -389)"/>
          </g>
        </g>
        <g id="Group_122" data-name="Group 122" transform="translate(49.822 54.982)">
          <g id="Group_121" data-name="Group 121">
            <path id="Path_185" data-name="Path 185" class="cls-3" d="M321.712,317.115A15.979,15.979,0,0,0,307.779,309a1.779,1.779,0,1,0,0,3.559,12.43,12.43,0,0,1,10.836,6.312,1.779,1.779,0,0,0,3.1-1.755Z" transform="translate(-306 -309)"/>
          </g>
        </g>
      </g>
    </g>
  </g>
</svg>
