<svg xmlns="http://www.w3.org/2000/svg" xmlns:xlink="http://www.w3.org/1999/xlink" width="558" height="138" viewBox="0 0 558 138">
  <defs>
    <linearGradient id="linear-gradient" x1="0.5" x2="0.5" y2="1" gradientUnits="objectBoundingBox">
      <stop offset="0" stop-color="#19126a"/>
      <stop offset="1" stop-color="#b82eea"/>
    </linearGradient>
    <clipPath id="clip-cool_4">
      <rect width="558" height="138"/>
    </clipPath>
  </defs>
  <g id="cool_4" data-name="cool – 4" clip-path="url(#clip-cool_4)">
    <g id="Group_132" data-name="Group 132" transform="translate(-65)">
      <g id="moon" transform="translate(109.695 17.032)">
        <g id="Group_130" data-name="Group 130" transform="translate(0 6.702)">
          <g id="Group_129" data-name="Group 129" transform="translate(0)">
            <path id="Path_186" data-name="Path 186" d="M102.749,65.048A4.019,4.019,0,0,0,97.8,65,36.632,36.632,0,0,1,75.373,72.57a37.216,37.216,0,0,1-6.634-.6,1.6,1.6,0,1,0-.57,3.14,40.4,40.4,0,0,0,7.2.647,39.8,39.8,0,0,0,24.36-8.23A.832.832,0,0,1,101,68.539,44.2,44.2,0,1,1,42.427,9.971a.832.832,0,0,1,1.006,1.262,40.2,40.2,0,0,0,19.351,62.51,1.6,1.6,0,1,0,1-3.03A36.98,36.98,0,0,1,45.97,13.17a4.024,4.024,0,0,0-4.871-6.1,47.391,47.391,0,1,0,62.8,62.8A4.019,4.019,0,0,0,102.749,65.048Z" transform="translate(-10.96 -6.702)" fill="url(#linear-gradient)"/>
            <path id="Path_187" data-name="Path 187" d="M244.293,111.914a6.846,6.846,0,0,1,6.839,6.838,1.6,1.6,0,1,0,3.192,0,6.846,6.846,0,0,1,6.838-6.838,1.6,1.6,0,0,0,0-3.192,6.846,6.846,0,0,1-6.838-6.839,1.6,1.6,0,1,0-3.192,0,6.847,6.847,0,0,1-6.839,6.839,1.6,1.6,0,0,0,0,3.192Zm8.434-4.607a10.109,10.109,0,0,0,3.011,3.011,10.108,10.108,0,0,0-3.011,3.011,10.109,10.109,0,0,0-3.011-3.011A10.108,10.108,0,0,0,252.727,107.307Z" transform="translate(-198.469 -83.233)" fill="url(#linear-gradient)"/>
            <path id="Path_188" data-name="Path 188" d="M353.126,232.139a4.965,4.965,0,1,0-4.965-4.964A4.97,4.97,0,0,0,353.126,232.139Zm0-6.737a1.773,1.773,0,1,1-1.773,1.773A1.775,1.775,0,0,1,353.126,225.4Z" transform="translate(-284.714 -182.937)" fill="url(#linear-gradient)"/>
            <path id="Path_189" data-name="Path 189" d="M18.173,436.768a4.965,4.965,0,1,0,4.965,4.965A4.97,4.97,0,0,0,18.173,436.768Zm0,6.737a1.773,1.773,0,1,1,1.773-1.773A1.775,1.775,0,0,1,18.173,443.505Z" transform="translate(-10.801 -358.395)" fill="url(#linear-gradient)"/>
            <circle id="Ellipse_9" data-name="Ellipse 9" cx="2.001" cy="2.001" r="2.001" transform="translate(52.257 44.239)" fill="url(#linear-gradient)"/>
            <circle id="Ellipse_10" data-name="Ellipse 10" cx="2.001" cy="2.001" r="2.001" transform="translate(0 68.263)" fill="url(#linear-gradient)"/>
            <circle id="Ellipse_11" data-name="Ellipse 11" cx="2.001" cy="2.001" r="2.001" transform="translate(65.088 13.313)" fill="url(#linear-gradient)"/>
          </g>
        </g>
      </g>
      <path id="Path_198" data-name="Path 198" d="M16.26,54.338A18.875,18.875,0,0,1,3.252,59.2q-4.57,0-6.533-1.934-1.113-1.055-1.113-3.721,0-4.1,6.24-5.3a25.152,25.152,0,0,1,4.717-.381,38.171,38.171,0,0,1,7.529,1.025,67.248,67.248,0,0,0,6.079-8.364Q23.7,35,25.752,32.014t4.658-6.108a52.543,52.543,0,0,1,5.449-5.64q5.771-5.156,11.426-5.156a4.6,4.6,0,0,1,3.633,1.274A4.437,4.437,0,0,1,52.031,19.4a7.49,7.49,0,0,1-1.6,4.058,21.148,21.148,0,0,1-3.691,4.1,32.648,32.648,0,0,1-4.131,3.032A6.862,6.862,0,0,1,39.4,31.838a2.578,2.578,0,0,1-2.021-1,3.014,3.014,0,0,1-.85-1.919,2.42,2.42,0,0,1,.249-1.289q.249-.366.513-.366t.322.322a12.382,12.382,0,0,0,3-1.831,36.232,36.232,0,0,0,3.765-3.208q1.7-1.67,1.7-2.095t-.513-.425a4.037,4.037,0,0,0-1.392.352,11.355,11.355,0,0,0-2.344,1.45,28.61,28.61,0,0,0-3.164,2.827,78.439,78.439,0,0,0-9.141,11.631q-1.172,1.7-3.311,4.951-4.365,6.592-6.24,9.023,15.029,3.955,21.475,3.955a8.316,8.316,0,0,0,4.189-.762,1.588,1.588,0,0,1,.586-.264q.146,0,.146.234a1.662,1.662,0,0,1-.264.7q-.264.469-1.3,1.992a6.935,6.935,0,0,1-1.538,1.816,10.179,10.179,0,0,1-4.878.85,41.614,41.614,0,0,1-6.562-.5q-3.12-.5-5.024-.981t-5.64-1.567Q17.432,54.66,16.26,54.338ZM5.566,52.551q-3.838,0-3.838.908,0,.352.659.615a4.213,4.213,0,0,0,1.567.264,10.965,10.965,0,0,0,5.479-1.494A30.7,30.7,0,0,0,5.566,52.551ZM67.412,35.734q2.227,0,2.227,1.523a1.642,1.642,0,0,1-.381,1.2,17.678,17.678,0,0,0-1.626,2.534q-1.245,2.153-2.754,5.508a26.079,26.079,0,0,0-1.948,5.728,2.988,2.988,0,0,0-.088.82q0,1.611.879,1.611a3.85,3.85,0,0,0,2.08-.835,15.02,15.02,0,0,0,2.139-1.787q.938-.952,1.831-1.948t1.069-1.143a.809.809,0,0,1,.527-.146q.557,0,.674.85a12.856,12.856,0,0,1,.117,1.758,3.119,3.119,0,0,1-.176,1.26,14.281,14.281,0,0,1-3.735,4.014Q65.361,59.025,63,59.025a4.118,4.118,0,0,1-3.472-1.436,5.065,5.065,0,0,1-1.113-3.179A7.477,7.477,0,0,1,59,51.35a25.218,25.218,0,0,1-5.581,5.361q-3.149,2.2-5.142,2.2a4.519,4.519,0,0,1-3.252-1.2,5.374,5.374,0,0,1-1.611-4.146A13.088,13.088,0,0,1,44.6,48.229a19.2,19.2,0,0,1,3.12-4.893,31.28,31.28,0,0,1,4.248-4.028Q56.836,35.5,60.938,35.5a5.5,5.5,0,0,1,2.578.527,2.409,2.409,0,0,1,1.26,1.318,4.384,4.384,0,0,1,1.187-1.333A2.978,2.978,0,0,1,67.412,35.734Zm-3.9,3.252q-5.01,0-10.371,5.566a24.545,24.545,0,0,0-3.5,4.775,10.08,10.08,0,0,0-1.6,3.809q0,1.025.586,1.025.82,0,4.57-3.237a45.1,45.1,0,0,0,4.98-4.761Q59.531,44.465,63.516,38.986ZM89.648,20.266l1.2.293a.589.589,0,0,1,.469.264.828.828,0,0,1,.205.5,4.226,4.226,0,0,1-.615,1.26q-.615,1.025-1.45,2.329t-.894,1.421q2.285-.176,3.237-.176a4.285,4.285,0,0,1,1.3.132,2.1,2.1,0,0,1,.806.732,5.229,5.229,0,0,0,.835.908,1.116,1.116,0,0,1,.381.923,1.22,1.22,0,0,1-.747,1.04,4.037,4.037,0,0,1-1.6.513q-6.8.674-7.5.7-2.373,3.633-6.636,11.323t-4.526,9.624A11.312,11.312,0,0,0,74,53.488q0,1.143,1.2,1.143a5.116,5.116,0,0,0,2.666-.923,21,21,0,0,0,2.7-2.007,27.547,27.547,0,0,1,3.516-2.93q.762,0,.762,2.637a3.361,3.361,0,0,1-1.318,2.578,45.826,45.826,0,0,1-4.98,3.838A7.47,7.47,0,0,1,74.5,59.113a3.643,3.643,0,0,1-.82-.088,5.79,5.79,0,0,1-3.442-1.714,5.038,5.038,0,0,1-1.084-3.442,14.553,14.553,0,0,1,1.289-5.259,63.819,63.819,0,0,1,3.208-6.577q3.164-5.684,6.328-10.664l-1.113.146q-3.4.381-3.955.381h-.264a4.146,4.146,0,0,1-1.641-.337q-.791-.337-.791-.835a1.436,1.436,0,0,1,.425-.967,2.441,2.441,0,0,0,.513-.732q.205-.645,1.538-1.436a5.241,5.241,0,0,1,2.007-.835q.674-.044,1.3-.073t1.406-.059q.776-.029,1.187-.059l2.637-.117A56.929,56.929,0,0,1,86.616,21.7a13.875,13.875,0,0,1,1.069-1.157,1.128,1.128,0,0,1,.586-.1Zm12.891,15.82a4.523,4.523,0,0,1-1.567,3.4,5.073,5.073,0,0,1-3.56,1.465.961.961,0,0,1-.85-.308,1.428,1.428,0,0,1-.205-.806,3.971,3.971,0,0,1,.117-.967,13.443,13.443,0,0,0-2.344,1.084,29.2,29.2,0,0,0-3.164,2.168q-1.875,1.436-1.875,2.139,0,.234.688.234a7.52,7.52,0,0,0,2.124-.483,7.575,7.575,0,0,1,2.007-.483,2.943,2.943,0,0,1,.747.059,2.561,2.561,0,0,1,.82.894,2.261,2.261,0,0,1,.439,1.084q0,.4-.762,1.04a5.4,5.4,0,0,1-1.729.981,10.276,10.276,0,0,0-1.289.513q-6.182,3.457-6.182,4.746,0,2.285,3.9,2.285a9.369,9.369,0,0,0,5.01-1.582,39.612,39.612,0,0,0,3.853-2.739q1.714-1.392,2.168-1.714a1.41,1.41,0,0,1,.688-.322q.762,0,.762,1.7a7.7,7.7,0,0,1-.205,2.241,3.773,3.773,0,0,1-1.172,1.333q-6.27,5.1-11.865,5.1a11.6,11.6,0,0,1-4.775-.82q-3.281-1.494-3.281-4.57,0-4.043,5.6-6.123A2.578,2.578,0,0,1,85.2,46.354a7,7,0,0,1-.322-2.49,5.822,5.822,0,0,1,1.6-3.633,12.9,12.9,0,0,1,3.911-3.149,19.836,19.836,0,0,1,9.2-2.783,4.585,4.585,0,0,1,1.963.469A1.452,1.452,0,0,1,102.539,36.086Zm38.174-19.717,2.139-.469a2.241,2.241,0,0,1,1.318.352q.5.352.5.659a4.02,4.02,0,0,1-.146.894q-.146.586-2.373,11.426T138.9,45.4q4.98-6.768,11.631-16.67t7.764-13.154A4.07,4.07,0,0,1,159.2,14a2.264,2.264,0,0,1,1-.659,6.454,6.454,0,0,1,1.348-.1,7.284,7.284,0,0,1,2.153.4q1.245.4,1.245,1.3,0,1.729-5.127,9.961t-11.7,17.49q-6.577,9.258-11,14.648A2.4,2.4,0,0,1,135.19,58a7.839,7.839,0,0,1-2.373-.4q-1.245-.4-1.245-1.392,0-3.223,5.654-30.967-4.834,6.27-11.748,17.461-7.207,11.572-8.145,14.355-.527,1.67-1.2,1.934a2.458,2.458,0,0,1-1,.205l-2.314.264a2.2,2.2,0,0,1-1.245-.381q-.571-.381-.571-.791,0-1.172,3.237-7T121.8,38.62q4.321-6.841,9.038-13.315a56.814,56.814,0,0,1,7.295-8.7,1.758,1.758,0,0,1,1.2-.469Zm31.055,9.463a5.008,5.008,0,0,1-1.553,3.354,4.444,4.444,0,0,1-3.237,1.685q-1.685,0-1.685-1.758a4.9,4.9,0,0,1,1.479-3.354,4.394,4.394,0,0,1,3.267-1.6,1.768,1.768,0,0,1,1.26.439A1.6,1.6,0,0,1,171.768,25.832Zm-4.746,25.576a3.249,3.249,0,0,1-.176,1.26,11.03,11.03,0,0,1-4.57,4.731,11.365,11.365,0,0,1-5.449,1.8,5.65,5.65,0,0,1-3.984-1.553,4.4,4.4,0,0,1-1.67-3.164,11.432,11.432,0,0,1,1.611-4.687q1.611-3.076,3.223-5.684a19.632,19.632,0,0,0,1.611-2.827q0-.22-.6-.864t-.6-.952q0-.308,1.216-1.611a20.9,20.9,0,0,1,2.959-2.578,5.333,5.333,0,0,1,2.666-1.274,2.179,2.179,0,0,1,1.655.82,2.367,2.367,0,0,1,.732,1.494q0,.674-6.973,12.686-.088.176-.483.776t-.615,1q-.22.4-.513.952a4.617,4.617,0,0,0-.586,1.963q0,1,1.348,1a5.225,5.225,0,0,0,2.8-.923,13.155,13.155,0,0,0,2.5-2.036q2.754-2.959,3.135-2.959Q167.021,48.771,167.021,51.408Zm6.943-12.861a27.039,27.039,0,0,1,5.566-3.018,13.417,13.417,0,0,1,4.717-1.055q1.992,0,2.549,1.143a3.893,3.893,0,0,1,2.842-1.406q.5-.029,1.23-.029t.908.19a1.835,1.835,0,0,1,.322.718q.146.527.176.586a.454.454,0,0,1,.029.19.574.574,0,0,1-.146.322,2.934,2.934,0,0,1-.337.366q-.19.176-.22.205-6.475,9.287-13.242,21.182a58.484,58.484,0,0,1,12.48-8.877,1.507,1.507,0,0,1,.674-.176q.469,0,.615.6a7.663,7.663,0,0,1,.146,1.714,4.131,4.131,0,0,1-.132,1.377,5.153,5.153,0,0,1-1.362,1.055l-3.193,2.051q-1.963,1.26-4.16,2.783a44.059,44.059,0,0,0-8.672,7.705,70.041,70.041,0,0,0-6.3,8.555,2.5,2.5,0,0,1-2.373,1.26q-3.311,0-3.311-3.135,0-3.193,3.135-6.533a43.9,43.9,0,0,1,4.307-4.072q1.963-1.582,2.139-1.787,2.168-3.252,5.889-9.229a36.423,36.423,0,0,1-6.138,5.273q-2.974,1.963-4.438,1.963-4.482,0-4.482-3.838a13.671,13.671,0,0,1,1.553-6.152,21.394,21.394,0,0,1,3.984-5.552A36.686,36.686,0,0,1,173.965,38.547Zm11.162-.762A22.642,22.642,0,0,0,178.74,40.2a22.932,22.932,0,0,0-4.922,3.6,28.511,28.511,0,0,0-3.34,3.94q-2.637,3.779-2.637,5.859,0,.5.249.5a3.233,3.233,0,0,0,1.113-.527,25.527,25.527,0,0,0,2.446-1.8q1.582-1.274,3.516-3.032A101.205,101.205,0,0,0,185.127,37.785Zm30.615,11.572a14.987,14.987,0,0,1,.205,2.124,3.046,3.046,0,0,1-.278,1.348,7.916,7.916,0,0,1-1.23,1.611,20.075,20.075,0,0,1-2.271,2.095,10.551,10.551,0,0,1-6.592,2.549q-4.834,0-4.834-4.277,0-3.721,6.475-14.824.234-.41.322-.586-2.256,1.582-8.628,8.628T190.43,58a2.208,2.208,0,0,1-.879.586,2.89,2.89,0,0,1-1.1.322,1.781,1.781,0,0,1-.85-.249,1.865,1.865,0,0,0-.571-.249q-.381,0-.381-.249a19.21,19.21,0,0,1,1.04-2.7q1.04-2.446,2.739-6.079,4.658-10.02,13.857-26.074a75.974,75.974,0,0,1,5.039-7.969q1.289-1.67,4.336-1.67.645,0,.732.381a3.643,3.643,0,0,1,.088.82,2.351,2.351,0,0,1-.176.879l-3.135,4.893a261.322,261.322,0,0,0-14.033,24.082,46.153,46.153,0,0,1,8.877-8.584q2.666-1.9,4-1.9a6.575,6.575,0,0,1,2.417.425q1.084.425,1.084,2.036a20.317,20.317,0,0,1-1.9,4.336q-5.713,11.25-5.713,12.5t1.025,1.245q1.494,0,4.6-2.9,2.344-2.2,2.959-2.812a1.108,1.108,0,0,1,.645-.264A.554.554,0,0,1,215.742,49.357ZM233.7,20.266l1.2.293a.589.589,0,0,1,.469.264.828.828,0,0,1,.205.5,4.226,4.226,0,0,1-.615,1.26q-.615,1.025-1.45,2.329t-.894,1.421q2.285-.176,3.237-.176a4.285,4.285,0,0,1,1.3.132,2.1,2.1,0,0,1,.806.732,5.229,5.229,0,0,0,.835.908,1.116,1.116,0,0,1,.381.923,1.22,1.22,0,0,1-.747,1.04,4.037,4.037,0,0,1-1.6.513q-6.8.674-7.5.7-2.373,3.633-6.636,11.323t-4.526,9.624a11.312,11.312,0,0,0-.117,1.436q0,1.143,1.2,1.143a5.116,5.116,0,0,0,2.666-.923,21,21,0,0,0,2.7-2.007,27.547,27.547,0,0,1,3.516-2.93q.762,0,.762,2.637a3.361,3.361,0,0,1-1.318,2.578,45.826,45.826,0,0,1-4.98,3.838,7.47,7.47,0,0,1-4.043,1.289,3.643,3.643,0,0,1-.82-.088,5.79,5.79,0,0,1-3.442-1.714,5.038,5.038,0,0,1-1.084-3.442A14.553,14.553,0,0,1,214.5,48.61a63.819,63.819,0,0,1,3.208-6.577q3.164-5.684,6.328-10.664l-1.113.146q-3.4.381-3.955.381H218.7a4.146,4.146,0,0,1-1.641-.337q-.791-.337-.791-.835a1.436,1.436,0,0,1,.425-.967,2.441,2.441,0,0,0,.513-.732q.205-.645,1.538-1.436a5.241,5.241,0,0,1,2.007-.835q.674-.044,1.3-.073t1.406-.059q.776-.029,1.187-.059l2.637-.117a56.929,56.929,0,0,1,3.384-4.746,13.875,13.875,0,0,1,1.069-1.157,1.128,1.128,0,0,1,.586-.1ZM271,40.92q.7,0,.7,1.128a25.493,25.493,0,0,1-.5,3.882q-.381,1.846-4.219,5.273a28.015,28.015,0,0,1-10.166,5.859,21.585,21.585,0,0,1-6.519,1.055,7.973,7.973,0,0,1-5.8-2.681,8.784,8.784,0,0,1-2.622-6.357,21.621,21.621,0,0,1,1.479-7.617,34.016,34.016,0,0,1,3.984-7.529,47.543,47.543,0,0,1,5.918-6.9,48.691,48.691,0,0,1,7.1-5.742,35.8,35.8,0,0,1,7.734-3.867,22.953,22.953,0,0,1,7.676-1.436,6.571,6.571,0,0,1,4.893,2.08,3.907,3.907,0,0,1,1.055,2.8,8.5,8.5,0,0,1-1.641,4.248,24.626,24.626,0,0,1-3.882,4.673,28.576,28.576,0,0,1-4.629,3.574,8.053,8.053,0,0,1-3.823,1.465,3.619,3.619,0,0,1-2.461-.894,2.387,2.387,0,0,1-1.025-1.6,4.6,4.6,0,0,1,.308-1.553q.308-.85.776-.85a.469.469,0,0,0-.117.293q0,.352,1.011.352t3.384-1.787a27.435,27.435,0,0,0,4.292-4.014q1.919-2.227,1.919-3.34,0-.762-1.025-.762-2.754,0-7.6,2.563a44.812,44.812,0,0,0-9.272,6.606,41.158,41.158,0,0,0-7.69,9.595q-3.267,5.552-3.267,9.976a4.312,4.312,0,0,0,.981,2.959,3.817,3.817,0,0,0,3.018,1.113,12.775,12.775,0,0,0,4.819-1.172,30.437,30.437,0,0,0,5.288-2.871q2.5-1.7,4.731-3.486a42.728,42.728,0,0,0,3.56-3.135,6.153,6.153,0,0,0,1.362-1.626Q270.762,40.92,271,40.92Zm21.885-5.244a2.807,2.807,0,0,1,1.8.791,3.01,3.01,0,0,1,.923,2.417,11.123,11.123,0,0,1-1.143,4.219,27.494,27.494,0,0,1-3.135,5.273,43.772,43.772,0,0,1-4.38,5.039,22.978,22.978,0,0,1-5.156,3.867,10.687,10.687,0,0,1-5.024,1.509,4.78,4.78,0,0,1-3.618-1.421,5.481,5.481,0,0,1-1.362-3.955,15.1,15.1,0,0,1,1.245-5.61,20.372,20.372,0,0,1,3.208-5.435,31.625,31.625,0,0,1,4.248-4.233q4.775-3.838,8.379-3.838a3.374,3.374,0,0,1,2.432.791.708.708,0,0,1,.293.469v.176A10.1,10.1,0,0,1,292.881,35.676Zm-2.959,3.9h-.205q-1.025,0-1.025-1.494a15.864,15.864,0,0,0-4.482,2.461,21.663,21.663,0,0,0-4.189,4.16q-3.75,4.8-3.809,8.115,0,1.641,1.2,1.641a7.613,7.613,0,0,0,3.574-1.582,21.2,21.2,0,0,0,4.7-4.512,35.691,35.691,0,0,0,3.486-5.083,8.142,8.142,0,0,0,1.157-2.93Q290.332,39.572,289.922,39.572Zm24.932-3.9a2.807,2.807,0,0,1,1.8.791,3.01,3.01,0,0,1,.923,2.417,11.123,11.123,0,0,1-1.143,4.219,27.494,27.494,0,0,1-3.135,5.273,43.772,43.772,0,0,1-4.38,5.039,22.978,22.978,0,0,1-5.156,3.867,10.687,10.687,0,0,1-5.024,1.509,4.78,4.78,0,0,1-3.618-1.421,5.481,5.481,0,0,1-1.362-3.955A15.1,15.1,0,0,1,295,47.8a20.372,20.372,0,0,1,3.208-5.435,31.625,31.625,0,0,1,4.248-4.233q4.775-3.838,8.379-3.838a3.374,3.374,0,0,1,2.432.791.708.708,0,0,1,.293.469v.176A10.1,10.1,0,0,1,314.854,35.676Zm-2.959,3.9h-.205q-1.025,0-1.025-1.494a15.864,15.864,0,0,0-4.482,2.461,21.663,21.663,0,0,0-4.189,4.16q-3.75,4.8-3.809,8.115,0,1.641,1.2,1.641a7.613,7.613,0,0,0,3.574-1.582,21.2,21.2,0,0,0,4.7-4.512,35.691,35.691,0,0,0,3.486-5.083,8.142,8.142,0,0,0,1.157-2.93Q312.3,39.572,311.895,39.572Zm29.326-25.547a3.909,3.909,0,0,1,2.476.835,2.949,2.949,0,0,1,1.069,2.476q0,1.641-1.816,5.142a63.934,63.934,0,0,1-4.365,7.148q-2.549,3.647-5.771,7.749-5.1,6.5-9.785,11.689a11.2,11.2,0,0,1-.249,1.3,8.507,8.507,0,0,0-.22,1.919,2.278,2.278,0,0,0,.894,1.743,3.253,3.253,0,0,0,2.212.776,5.416,5.416,0,0,0,2.827-.937,13.82,13.82,0,0,0,2.622-2.08q2.93-3.018,3.633-3.018t.7,2.139V51.5a2.726,2.726,0,0,1-.41,1.67,16.263,16.263,0,0,1-5.537,4.5,13.481,13.481,0,0,1-5.83,1.479,5.2,5.2,0,0,1-4.189-1.685,6.886,6.886,0,0,1-1.436-4.614,37.359,37.359,0,0,1,3.062-13.433,62.716,62.716,0,0,1,6.9-13.14Q336.65,14.025,341.221,14.025ZM339.9,18.889q0-.439-.293-.439-1.025,0-5.391,5.859a92.351,92.351,0,0,0-6.313,9.346,50.234,50.234,0,0,0-3.677,8.76q3.457-4.1,9.565-12.788T339.9,18.889Z" transform="translate(237 26)" fill="#fff"/>
    </g>
  </g>
</svg>
