<svg xmlns="http://www.w3.org/2000/svg" viewBox="0 0 90.93 104.95"><defs><style>.cls-1{fill:#fff;}.cls-2{fill:#fff;}.cls-3{fill:#fff;}</style></defs><g id="Layer_2" data-name="Layer 2"><g id="Layer_1-2" data-name="Layer 1"><path class="cls-1" d="M0,0C2.88,3.64,5.38,6.81,7.9,10Q17,21.26,26.08,32.56c.92,1.13,1.71,2.3.26,3.52s-2.54.61-3.58-.54c-.5-.55-1-1.14-1.42-1.72C17.21,28.71,13.1,23.59,9,18.49,8,17.34,7.19,16,5.1,15.66c3.29,5.89,6.23,11.42,9.43,16.79,1.75,3,3.17,5.53,0,8.51A6.5,6.5,0,0,0,13,45.07c-.33,7.67-4.26,13.55-9,19.09-4.39,5.08-4.65,10.76-2,16.66,1.2,2.69,2.89,5.17,4.26,7.8a1.64,1.64,0,0,0,2.15.85c4.39-1,8.63-2.37,12-5.52s3.31-7.6-.29-10.64c-.56-.48-1.2-.88-1.8-1.31-6.16-4.3-6.95-7.29-3.64-14.15,1-2.13,2.38-4.31,2.33-6.6-.11-6.08,1.92-9.29,8.52-10.4,5.94-1,7-6.31,3-10.82Q16.14,16.31,3.76,2.68A7.67,7.67,0,0,0,0,0ZM54.06,37.36c-.58,7,2.64,11.2,7.74,14.31s10.59,4.75,15.84,7.22c5,2.36,9.81,5,10.75,11.61a17.6,17.6,0,0,0-7.08-24.83A35.17,35.17,0,0,0,70.7,42.5C65.14,41.58,59.31,41.51,54.06,37.36ZM35.13,13.76c6.13,3.84,9.72,9.89,13.92,15.33,4.5,5.8,10.41,8.53,17.53,9.08,1.85.14,3.7.32,5.55.39,4.48.15,8.79.7,11.9,4.67a8,8,0,0,0-.45-2.7C79,27.58,65.29,19.46,50.31,21.18A6.53,6.53,0,0,1,44,18.77C41.65,16.22,39.24,13.42,35.13,13.76ZM66.66,57.3a14.56,14.56,0,0,0,1.57,12c2.27,3.83,4.8,7.51,7.12,11.32,2.82,4.62,4.11,9.45,1.46,14.68A2.08,2.08,0,0,0,79,94.85c10.07-6.44,11-21.53,1.83-29.09C76.6,62.29,71.56,60.16,66.66,57.3ZM21,88.14c5.78.51,9.85,3.41,13.38,7.54,2.32,2.69,5.3,3.83,8.86,2-.47-1.09-1.34-.77-2-.93-3.94-.93-5.9-3.66-4.83-6.84,1-2.88,4.31-4.09,7.77-2.81,3.26,1.2,5.1,3.77,6.5,6.76,1.25,2.68,2.11,5.57,4.08,7.87,2.86,3.34,6.45,4.11,9.75,2.09-7-1.43-7.58-2-8.85-9.65-.21-1.22-.35-2.45-.61-3.66-1.34-6.19-5.32-9.93-11.63-10.84C34.46,78.42,27.4,82.28,21,88.14ZM39.84,33.57c-3.17-3.73-3.9-7.76-4.75-11.75a9.2,9.2,0,0,0-6.21-7.25c-2-.71-2.76-.08-2.63,2,.33,5.22,1.74,10,5.43,13.89C33.63,32.47,35.84,34.34,39.84,33.57Zm22.22,22.8c-.12,10.84-2.8,13.75-14,15.25a22,22,0,0,0-9,2.77,131.15,131.15,0,0,0,13.46-.68,14.15,14.15,0,0,0,7.77-3.27A10.15,10.15,0,0,0,62.06,56.37ZM33.15,50.82c3.77,0,6.69-1.87,6.38-4.2-.37-2.75-2.24-4-4.9-4.14a4.94,4.94,0,0,0-5.1,5.21C29.53,50.15,31,50.89,33.15,50.82Z"/><path class="cls-2" d="M0,0A7.67,7.67,0,0,1,3.76,2.68Q16.11,16.35,28.43,30c4,4.51,3,9.83-3,10.82-6.6,1.11-8.63,4.32-8.52,10.4,0,2.29-1.3,4.47-2.33,6.6C11.3,64.71,12.09,67.7,18.25,72c.6.43,1.24.83,1.8,1.31,3.6,3,3.76,7.39.29,10.64s-7.61,4.53-12,5.52a1.64,1.64,0,0,1-2.15-.85C4.82,86,3.13,83.51,1.93,80.82-.7,74.92-.44,69.24,4,64.16c4.78-5.54,8.71-11.42,9-19.09A6.5,6.5,0,0,1,14.5,41c3.2-3,1.78-5.55,0-8.51-3.2-5.37-6.14-10.9-9.43-16.79C7.19,16,8,17.34,9,18.49c4.15,5.1,8.26,10.22,12.39,15.33.47.58.92,1.17,1.42,1.72,1,1.15,2.27,1.63,3.58.54s.66-2.39-.26-3.52Q17,21.27,7.9,10C5.38,6.81,2.88,3.64,0,0Z"/><path class="cls-3" d="M54.06,37.36c5.25,4.15,11.08,4.22,16.64,5.14a35.17,35.17,0,0,1,10.61,3.17A17.6,17.6,0,0,1,88.39,70.5c-.94-6.62-5.71-9.25-10.75-11.61-5.25-2.47-10.85-4.17-15.84-7.22S53.48,44.4,54.06,37.36Z"/><path class="cls-3" d="M35.13,13.76c4.11-.34,6.52,2.46,8.88,5a6.53,6.53,0,0,0,6.3,2.41c15-1.72,28.69,6.4,33.27,19.35a8,8,0,0,1,.45,2.7c-3.11-4-7.42-4.52-11.9-4.67-1.85-.07-3.7-.25-5.55-.39-7.12-.55-13-3.28-17.53-9.08C44.85,23.65,41.26,17.6,35.13,13.76Z"/><path class="cls-3" d="M66.66,57.3c4.9,2.86,9.94,5,14.17,8.46,9.22,7.56,8.24,22.65-1.83,29.09a2.08,2.08,0,0,1-2.19.45c2.65-5.23,1.36-10.06-1.46-14.68C73,76.81,70.5,73.13,68.23,69.3A14.56,14.56,0,0,1,66.66,57.3Z"/><path class="cls-2" d="M21,88.14c6.44-5.86,13.5-9.72,22.43-8.45C49.7,80.6,53.68,84.34,55,90.53c.26,1.21.4,2.44.61,3.66,1.27,7.63,1.81,8.22,8.85,9.65-3.3,2-6.89,1.25-9.75-2.09-2-2.3-2.83-5.19-4.08-7.87-1.4-3-3.24-5.56-6.5-6.76-3.46-1.28-6.8-.07-7.77,2.81-1.07,3.18.89,5.91,4.83,6.84.65.16,1.52-.16,2,.93-3.56,1.81-6.54.67-8.86-2C30.81,91.55,26.74,88.65,21,88.14Z"/><path class="cls-2" d="M39.84,33.57c-4,.77-6.21-1.1-8.16-3.12-3.69-3.85-5.1-8.67-5.43-13.89-.13-2.07.63-2.7,2.63-2a9.2,9.2,0,0,1,6.21,7.25C35.94,25.81,36.67,29.84,39.84,33.57Z"/><path class="cls-2" d="M62.06,56.37a10.15,10.15,0,0,1-1.75,14.07,14.15,14.15,0,0,1-7.77,3.27,131.15,131.15,0,0,1-13.46.68,22,22,0,0,1,9-2.77C59.26,70.12,61.94,67.21,62.06,56.37Z"/><path class="cls-2" d="M33.15,50.82c-2.17.07-3.62-.67-3.62-3.13a4.94,4.94,0,0,1,5.1-5.21c2.66.11,4.53,1.39,4.9,4.14C39.84,49,36.92,50.79,33.15,50.82Z"/></g></g></svg>
