<svg width="876" height="460" viewBox="0 0 876 460" fill="none" xmlns="http://www.w3.org/2000/svg">
<g filter="url(#filter0_d)">
<path d="M284.096 43.4095L190.236 196.291L101.448 50.5857L40 53L161.115 250.52L159.223 364.64L213.884 362.493L215.776 248.372L345.544 40.9952L284.096 43.4095Z" fill="url(#paint0_linear)"/>
<path d="M341.905 43.1365L214.099 247.379L213.787 247.877L213.778 248.45L211.919 360.572L161.255 362.562L163.114 250.441L163.123 249.875L162.835 249.405L43.5431 54.8592L100.295 52.6294L188.514 197.401L190.171 200.121L191.923 197.269L285.182 45.3652L341.905 43.1365Z" stroke="url(#paint1_linear)" stroke-opacity="0.15" stroke-width="4"/>
</g>
<g filter="url(#filter1_d)">
<path d="M716.813 97.8819C648.456 100.568 595.074 155.176 593.939 223.576L590.692 419.437L644.658 417.316L646.222 322.996C665.287 334.609 688.194 340.981 712.677 340.019C781.033 337.333 834.418 282.604 835.55 214.325C836.808 145.799 785.048 95.201 716.813 97.8819ZM713.697 285.803C675.155 287.318 647.353 260.139 647.992 221.573C648.632 183.007 677.356 154.607 715.897 153.092C754.439 151.578 782.258 177.757 781.619 216.323C780.981 254.767 752.117 284.294 713.697 285.803Z" fill="url(#paint2_linear)"/>
<path d="M644.223 323.074L642.692 415.395L592.723 417.358L595.938 223.497C597.054 156.202 649.527 102.524 716.78 99.8817C783.909 97.2441 834.789 146.979 833.552 214.4L833.552 214.404C832.438 281.579 779.961 335.377 712.71 338.019C688.626 338.965 666.089 332.698 647.329 321.27L644.284 319.416L644.223 323.074ZM645.994 221.652C645.336 261.322 674.019 289.361 713.664 287.803C753.188 286.25 782.961 255.793 783.617 216.244C784.275 176.534 755.535 149.536 715.931 151.093C676.326 152.649 646.652 181.941 645.994 221.652Z" stroke="url(#paint3_linear)" stroke-opacity="0.15" stroke-width="4"/>
</g>
<g filter="url(#filter2_d)">
<path d="M373.725 196.717C349.001 197.689 328.951 179.691 326.804 155.778C326.608 152.998 328.827 150.608 331.494 150.504L339.978 150.17C342.765 150.061 344.913 152.037 345.353 154.686C347.425 168.542 359.366 178.859 374.031 178.283C388.696 177.707 400.993 166.559 403.529 152.4C404.058 149.713 406.274 147.566 409.061 147.456L417.545 147.123C420.333 147.013 422.474 149.353 422.067 152.035C419.123 176.148 398.329 195.751 373.725 196.717Z" fill="url(#paint4_linear)"/>
<path d="M420.091 151.843L420.086 151.873L420.083 151.902C417.263 175.002 397.331 193.791 373.758 194.718C350.075 195.648 330.864 178.411 328.797 155.51C328.693 153.905 329.969 152.562 331.461 152.503L339.945 152.17C341.656 152.103 343.072 153.302 343.379 155.107C345.597 169.887 358.334 180.898 373.998 180.283C389.654 179.668 402.778 167.769 405.492 152.665C405.86 150.834 407.317 149.523 409.028 149.456L417.512 149.122C419.158 149.058 420.305 150.436 420.091 151.843Z" stroke="url(#paint5_linear)" stroke-opacity="0.15" stroke-width="4"/>
</g>
<g filter="url(#filter3_d)">
<path d="M531.197 181.198L522.713 181.531C519.926 181.641 517.778 179.665 517.338 177.016C515.266 163.16 503.325 152.842 488.66 153.418C473.995 153.995 461.698 165.143 459.162 179.302C458.633 181.989 456.417 184.136 453.63 184.246L445.146 184.579C442.358 184.689 440.217 182.349 440.625 179.666C443.568 155.554 464.241 135.956 488.966 134.984C513.691 134.013 533.74 152.011 535.887 175.923C536.086 178.582 533.864 181.093 531.197 181.198Z" fill="url(#paint6_linear)"/>
<path d="M442.6 179.859L442.605 179.829L442.609 179.799C445.429 156.696 465.242 137.915 488.933 136.984C512.618 136.054 531.83 153.293 533.895 176.196C533.999 177.704 532.696 179.141 531.231 179.198L522.747 179.532C521.035 179.599 519.619 178.4 519.312 176.595C517.094 161.815 504.357 150.803 488.693 151.419C473.037 152.034 459.914 163.933 457.199 179.037C456.832 180.867 455.374 182.179 453.663 182.246L445.179 182.579C443.533 182.644 442.386 181.266 442.6 179.859Z" stroke="url(#paint7_linear)" stroke-opacity="0.15" stroke-width="4"/>
</g>
<g filter="url(#filter4_d)">
<path d="M539.611 214.227L319.685 222.868C311.615 223.185 305.106 230.25 305.477 238.29L306.611 262.867C306.687 264.517 307.056 266.123 307.701 267.612L322.276 301.254C323.361 303.757 325.186 305.837 327.518 307.227L369.745 332.408C371.123 333.23 372.65 333.793 374.255 334.072L426.145 343.098C427.664 343.362 429.23 343.367 430.78 343.113L472.172 336.336C473.925 336.049 475.626 335.435 477.186 334.528L515.907 311.997C517.52 311.059 518.952 309.823 520.122 308.359L541.017 282.227C542.351 280.558 543.313 278.632 543.833 276.59L552.75 241.564C553.026 240.481 553.174 239.377 553.193 238.275L553.368 227.676C553.497 219.945 547.337 213.924 539.611 214.227Z" fill="white" fill-opacity="0.01"/>
</g>
<path d="M320.514 235.652C318.696 235.723 317.336 237.352 317.429 239.045C320.617 273.219 339.276 302.058 366.366 319.173L367.781 233.795L320.514 235.652V235.652Z" fill="#FF0B4A"/>
<path d="M367.782 233.795L366.366 319.173C383.266 329.902 403.515 335.893 425.442 335.638L427.169 231.461L367.782 233.795Z" fill="#FF9C00"/>
<path d="M425.442 335.638C426.412 335.599 427.5 335.678 428.47 335.64C448.953 334.835 468.314 328.62 484.956 318.392L486.436 229.133L427.048 231.466L425.321 335.642L425.442 335.638Z" fill="#F6C900"/>
<path d="M542.992 230.014C543.267 228.171 541.825 226.761 539.993 226.833L486.118 228.95L484.625 318.938C515.952 299.868 538.347 267.219 542.992 230.014Z" fill="#00E586"/>
<g filter="url(#filter5_i)">
<path d="M547.539 217.913L311.221 227.198L313.056 267.094L329.405 304.921L374.888 332.111L428.656 341.49L472.713 334.263L514.055 310.157L537.51 280.758L547.124 242.909L547.539 217.913Z" fill="white" fill-opacity="0.01"/>
</g>
<path d="M430.467 353.983C356.758 358.091 297.422 298.855 298.647 224.997L298.683 222.814C298.725 220.268 300.82 218.125 303.365 218.025L557.641 208.034C560.186 207.934 562.213 209.915 562.17 212.462L562.094 217.07C561.023 288.982 502.116 349.956 430.467 353.983ZM320.514 235.652C318.696 235.723 317.337 237.352 317.43 239.045C322.793 295.434 370.175 337.809 428.472 335.519C486.769 333.228 535.619 287.072 542.86 230.188C543.133 228.359 541.703 226.961 539.885 227.033L320.514 235.652Z" fill="url(#paint8_linear)"/>
<path d="M560.095 217.149L560.095 217.152C559.04 287.967 501.028 348.019 430.466 351.985C357.918 356.028 299.438 297.703 300.645 224.919L300.681 222.736C300.705 221.293 301.89 220.081 303.332 220.025L557.608 210.034C559.049 209.977 560.196 211.098 560.172 212.54L560.095 217.149ZM315.434 239.266L315.436 239.306L315.44 239.345C320.898 296.727 369.109 339.849 428.439 337.518C487.762 335.188 537.463 288.228 544.841 230.35C545.3 227.171 542.773 224.921 539.918 225.033L320.547 233.652C317.504 233.772 315.281 236.485 315.434 239.266Z" stroke="url(#paint9_linear)" stroke-opacity="0.15" stroke-width="4"/>
<defs>
<filter id="filter0_d" x="0" y="0.995117" width="385.544" height="403.645" filterUnits="userSpaceOnUse" color-interpolation-filters="sRGB">
<feFlood flood-opacity="0" result="BackgroundImageFix"/>
<feColorMatrix in="SourceAlpha" type="matrix" values="0 0 0 0 0 0 0 0 0 0 0 0 0 0 0 0 0 0 127 0"/>
<feOffset/>
<feGaussianBlur stdDeviation="20"/>
<feColorMatrix type="matrix" values="0 0 0 0 1 0 0 0 0 1 0 0 0 0 1 0 0 0 0.36 0"/>
<feBlend mode="normal" in2="BackgroundImageFix" result="effect1_dropShadow"/>
<feBlend mode="normal" in="SourceGraphic" in2="effect1_dropShadow" result="shape"/>
</filter>
<filter id="filter1_d" x="550.691" y="57.7803" width="324.881" height="401.657" filterUnits="userSpaceOnUse" color-interpolation-filters="sRGB">
<feFlood flood-opacity="0" result="BackgroundImageFix"/>
<feColorMatrix in="SourceAlpha" type="matrix" values="0 0 0 0 0 0 0 0 0 0 0 0 0 0 0 0 0 0 127 0"/>
<feOffset/>
<feGaussianBlur stdDeviation="20"/>
<feColorMatrix type="matrix" values="0 0 0 0 1 0 0 0 0 1 0 0 0 0 1 0 0 0 0.36 0"/>
<feBlend mode="normal" in2="BackgroundImageFix" result="effect1_dropShadow"/>
<feBlend mode="normal" in="SourceGraphic" in2="effect1_dropShadow" result="shape"/>
</filter>
<filter id="filter2_d" x="286.792" y="107.119" width="175.325" height="129.636" filterUnits="userSpaceOnUse" color-interpolation-filters="sRGB">
<feFlood flood-opacity="0" result="BackgroundImageFix"/>
<feColorMatrix in="SourceAlpha" type="matrix" values="0 0 0 0 0 0 0 0 0 0 0 0 0 0 0 0 0 0 127 0"/>
<feOffset/>
<feGaussianBlur stdDeviation="20"/>
<feColorMatrix type="matrix" values="0 0 0 0 1 0 0 0 0 1 0 0 0 0 1 0 0 0 0.36 0"/>
<feBlend mode="normal" in2="BackgroundImageFix" result="effect1_dropShadow"/>
<feBlend mode="normal" in="SourceGraphic" in2="effect1_dropShadow" result="shape"/>
</filter>
<filter id="filter3_d" x="400.575" y="94.9468" width="175.325" height="129.636" filterUnits="userSpaceOnUse" color-interpolation-filters="sRGB">
<feFlood flood-opacity="0" result="BackgroundImageFix"/>
<feColorMatrix in="SourceAlpha" type="matrix" values="0 0 0 0 0 0 0 0 0 0 0 0 0 0 0 0 0 0 127 0"/>
<feOffset/>
<feGaussianBlur stdDeviation="20"/>
<feColorMatrix type="matrix" values="0 0 0 0 1 0 0 0 0 1 0 0 0 0 1 0 0 0 0.36 0"/>
<feBlend mode="normal" in2="BackgroundImageFix" result="effect1_dropShadow"/>
<feBlend mode="normal" in="SourceGraphic" in2="effect1_dropShadow" result="shape"/>
</filter>
<filter id="filter4_d" x="265.462" y="174.216" width="327.908" height="209.083" filterUnits="userSpaceOnUse" color-interpolation-filters="sRGB">
<feFlood flood-opacity="0" result="BackgroundImageFix"/>
<feColorMatrix in="SourceAlpha" type="matrix" values="0 0 0 0 0 0 0 0 0 0 0 0 0 0 0 0 0 0 127 0"/>
<feOffset/>
<feGaussianBlur stdDeviation="20"/>
<feColorMatrix type="matrix" values="0 0 0 0 1 0 0 0 0 1 0 0 0 0 1 0 0 0 0.36 0"/>
<feBlend mode="normal" in2="BackgroundImageFix" result="effect1_dropShadow"/>
<feBlend mode="normal" in="SourceGraphic" in2="effect1_dropShadow" result="shape"/>
</filter>
<filter id="filter5_i" x="311.221" y="217.913" width="236.318" height="134.577" filterUnits="userSpaceOnUse" color-interpolation-filters="sRGB">
<feFlood flood-opacity="0" result="BackgroundImageFix"/>
<feBlend mode="normal" in="SourceGraphic" in2="BackgroundImageFix" result="shape"/>
<feColorMatrix in="SourceAlpha" type="matrix" values="0 0 0 0 0 0 0 0 0 0 0 0 0 0 0 0 0 0 127 0" result="hardAlpha"/>
<feOffset dy="28"/>
<feGaussianBlur stdDeviation="5.5"/>
<feComposite in2="hardAlpha" operator="arithmetic" k2="-1" k3="1"/>
<feColorMatrix type="matrix" values="0 0 0 0 0 0 0 0 0 0 0 0 0 0 0 0 0 0 0.03 0"/>
<feBlend mode="normal" in2="shape" result="effect1_innerShadow"/>
</filter>
<linearGradient id="paint0_linear" x1="192.772" y1="46.9976" x2="205.181" y2="362.835" gradientUnits="userSpaceOnUse">
<stop stop-color="#FBFBFB"/>
<stop offset="0.494792" stop-color="white"/>
<stop offset="1" stop-color="#FDFDFD"/>
</linearGradient>
<linearGradient id="paint1_linear" x1="192.772" y1="46.9976" x2="205.181" y2="362.835" gradientUnits="userSpaceOnUse">
<stop stop-color="#DADADA" stop-opacity="0.66"/>
<stop offset="1" stop-color="#DADADA" stop-opacity="0.35"/>
</linearGradient>
<linearGradient id="paint2_linear" x1="716.752" y1="97.8843" x2="729.172" y2="413.996" gradientUnits="userSpaceOnUse">
<stop stop-color="#FBFBFB"/>
<stop offset="0.494792" stop-color="white"/>
<stop offset="1" stop-color="#FDFDFD"/>
</linearGradient>
<linearGradient id="paint3_linear" x1="716.752" y1="97.8843" x2="729.172" y2="413.996" gradientUnits="userSpaceOnUse">
<stop stop-color="#DADADA" stop-opacity="0.66"/>
<stop offset="1" stop-color="#DADADA" stop-opacity="0.35"/>
</linearGradient>
<linearGradient id="paint4_linear" x1="374.53" y1="148.813" x2="376.408" y2="196.612" gradientUnits="userSpaceOnUse">
<stop stop-color="#FBFBFB"/>
<stop offset="0.494792" stop-color="white"/>
<stop offset="1" stop-color="#FDFDFD"/>
</linearGradient>
<linearGradient id="paint5_linear" x1="374.53" y1="148.813" x2="376.408" y2="196.612" gradientUnits="userSpaceOnUse">
<stop stop-color="#DADADA" stop-opacity="0.66"/>
<stop offset="1" stop-color="#DADADA" stop-opacity="0.35"/>
</linearGradient>
<linearGradient id="paint6_linear" x1="488.955" y1="134.985" x2="490.833" y2="182.784" gradientUnits="userSpaceOnUse">
<stop stop-color="#FBFBFB"/>
<stop offset="0.494792" stop-color="white"/>
<stop offset="1" stop-color="#FDFDFD"/>
</linearGradient>
<linearGradient id="paint7_linear" x1="488.955" y1="134.985" x2="490.833" y2="182.784" gradientUnits="userSpaceOnUse">
<stop stop-color="#DADADA" stop-opacity="0.66"/>
<stop offset="1" stop-color="#DADADA" stop-opacity="0.35"/>
</linearGradient>
<linearGradient id="paint8_linear" x1="430.503" y1="213.03" x2="436.033" y2="353.782" gradientUnits="userSpaceOnUse">
<stop stop-color="#FBFBFB"/>
<stop offset="0.494792" stop-color="white"/>
<stop offset="1" stop-color="#FDFDFD"/>
</linearGradient>
<linearGradient id="paint9_linear" x1="430.503" y1="213.03" x2="436.033" y2="353.782" gradientUnits="userSpaceOnUse">
<stop stop-color="#DADADA" stop-opacity="0.66"/>
<stop offset="1" stop-color="#DADADA" stop-opacity="0.35"/>
</linearGradient>
</defs>
</svg>
