<svg width="416" height="418" viewBox="0 0 416 418" fill="none" xmlns="http://www.w3.org/2000/svg">
<path d="M207.898 417.436C93.3711 417.436 0 323.742 0 208.616C0 93.4893 93.3711 0 207.898 0C322.425 0 415.797 93.6934 415.797 208.616C415.797 323.538 322.629 417.436 207.898 417.436ZM207.898 19.8001C104.153 19.8001 19.5286 104.512 19.5286 208.82C19.5286 313.128 103.949 397.84 207.898 397.84C311.847 397.84 396.268 313.128 396.268 208.82C396.268 104.512 311.847 19.8001 207.898 19.8001Z" fill="url(#paint0_linear)"/>
<path d="M146.871 179.018C120.426 179.018 98.6601 158.809 96.0156 133.09C95.6088 130.232 98.0499 127.578 101.101 127.578H110.255C113.103 127.578 115.544 129.824 115.951 132.681C118.392 147.787 131.411 159.218 147.075 159.218C162.738 159.218 175.757 147.787 178.198 132.681C178.605 129.824 181.046 127.578 183.894 127.578H193.048C196.1 127.578 198.337 130.232 198.134 133.09C195.083 158.809 173.113 179.018 146.871 179.018Z" fill="url(#paint1_linear)"/>
<path d="M314.899 169.016H305.745C302.897 169.016 300.456 166.77 300.049 163.913C297.608 148.807 284.589 137.376 268.925 137.376C253.261 137.376 240.242 148.807 237.801 163.913C237.394 166.77 234.953 169.016 232.105 169.016H222.951C219.9 169.016 217.662 166.362 217.866 163.504C220.714 137.785 242.48 117.576 268.722 117.576C294.963 117.576 316.933 137.785 319.577 163.504C320.391 166.362 317.95 169.016 314.899 169.016Z" fill="url(#paint2_linear)"/>
<path d="M210.339 350.075C131.411 351.503 66.9263 285.367 66.9263 206.166V203.717C66.9263 201.063 69.1639 198.818 71.8084 198.818H343.785C346.429 198.818 348.667 201.063 348.667 203.717V208.616C348.871 285.775 287.03 348.85 210.339 350.075ZM90.7268 218.618C88.8959 218.618 87.2686 220.251 87.472 222.088C94.1849 282.917 145.651 330.274 207.898 330.274C270.146 330.274 321.612 282.917 328.325 222.088C328.528 220.251 327.104 218.618 325.07 218.618H90.7268V218.618Z" fill="url(#paint3_linear)"/>
<defs>
<linearGradient id="paint0_linear" x1="207.898" y1="0" x2="207.898" y2="417.436" gradientUnits="userSpaceOnUse">
<stop stop-color="#FBFBFB"/>
<stop offset="0.494792" stop-color="white"/>
<stop offset="1" stop-color="#FDFDFD"/>
</linearGradient>
<linearGradient id="paint1_linear" x1="147.059" y1="127.578" x2="147.059" y2="179.018" gradientUnits="userSpaceOnUse">
<stop stop-color="#FBFBFB"/>
<stop offset="0.494792" stop-color="white"/>
<stop offset="1" stop-color="#FDFDFD"/>
</linearGradient>
<linearGradient id="paint2_linear" x1="268.794" y1="117.576" x2="268.794" y2="169.016" gradientUnits="userSpaceOnUse">
<stop stop-color="#FBFBFB"/>
<stop offset="0.494792" stop-color="white"/>
<stop offset="1" stop-color="#FDFDFD"/>
</linearGradient>
<linearGradient id="paint3_linear" x1="207.797" y1="198.818" x2="207.797" y2="350.097" gradientUnits="userSpaceOnUse">
<stop stop-color="#FBFBFB"/>
<stop offset="0.494792" stop-color="white"/>
<stop offset="1" stop-color="#FDFDFD"/>
</linearGradient>
</defs>
</svg>
