<svg width="18" height="22" viewBox="0 0 18 22" fill="none" xmlns="http://www.w3.org/2000/svg">
<path d="M14.939 11.6924C14.9498 10.8578 15.1715 10.0394 15.5835 9.31343C15.9955 8.58747 16.5845 7.97753 17.2956 7.54036C16.8439 6.8952 16.2479 6.36426 15.5551 5.98971C14.8623 5.61515 14.0916 5.40731 13.3044 5.38268C11.6252 5.20642 9.99725 6.38751 9.14154 6.38751C8.26927 6.38751 6.95177 5.40018 5.53304 5.42937C4.61536 5.45902 3.72102 5.72587 2.93714 6.20393C2.15326 6.68199 1.50658 7.35495 1.06012 8.15724C-0.873884 11.5057 0.568706 16.4267 2.42132 19.1333C3.34822 20.4587 4.4315 21.9391 5.84895 21.8866C7.23601 21.8291 7.75405 21.0021 9.42835 21.0021C11.0871 21.0021 11.5731 21.8866 13.0193 21.8532C14.5077 21.8291 15.4455 20.522 16.3399 19.1841C17.0058 18.2397 17.5183 17.196 17.8583 16.0916C16.9936 15.7259 16.2556 15.1137 15.7365 14.3314C15.2174 13.5491 14.94 12.6313 14.939 11.6924Z" fill="black"/>
<path d="M12.2074 3.60263C13.0189 2.62843 13.4187 1.37625 13.3219 0.112015C12.0821 0.242235 10.9368 0.834794 10.1143 1.77162C9.7122 2.22929 9.4042 2.76173 9.20796 3.3385C9.01171 3.91527 8.93107 4.52506 8.97063 5.13301C9.59077 5.1394 10.2043 5.00499 10.7649 4.7399C11.3256 4.47481 11.8188 4.08596 12.2074 3.60263Z" fill="black"/>
</svg>
