<svg width="475" height="474" viewBox="0 0 475 474" fill="none" xmlns="http://www.w3.org/2000/svg">
<path fill-rule="evenodd" clip-rule="evenodd" d="M207.026 1C207.026 1.55 205.924 2 204.577 2C200.674 2 181.747 5.858 172.238 8.591C157.791 12.744 147.245 16.839 132.526 24.01C66.131 56.359 18.053 119.051 4.069 191.513C2.946 197.337 2.026 203.204 2.026 204.551C2.026 205.898 1.576 207 1.026 207C-0.342 207 -0.342 265.654 1.026 266.5C1.576 266.84 2.03 268.329 2.034 269.809C2.038 271.289 3.161 277.9 4.529 284.5C19.484 356.639 66.13 416.811 132.455 449.521C154.712 460.497 184.286 469.588 204.276 471.598C207.989 471.971 211.026 472.664 211.026 473.138C211.026 473.612 222.726 474 237.026 474C251.326 474 263.026 473.647 263.026 473.215C263.026 472.783 267.413 471.845 272.776 471.13C309.036 466.298 349.365 449.092 381.191 424.878C392.63 416.174 411.629 397.539 421.337 385.5C447.681 352.832 465.908 311.447 471.216 272.25C471.904 267.162 472.819 263 473.247 263C473.675 263 474.026 251.3 474.026 237C474.026 222.7 473.638 211 473.164 211C472.69 211 471.997 207.963 471.624 204.25C469.614 184.262 460.608 155 449.519 132.429C416.999 66.237 356.665 19.458 284.526 4.503C277.926 3.135 271.288 2.012 269.776 2.008C268.264 2.004 267.026 1.55 267.026 1C267.026 0.356 256.359 0 237.026 0C217.693 0 207.026 0.356 207.026 1ZM273.526 20.916C317.293 28.66 356.023 48.093 387.498 78.102C449.475 137.193 471.419 225.022 444.438 306C427.818 355.88 393.905 397.991 348.298 425.378C331.882 435.236 306.159 445.522 286.676 450.019C278.378 451.934 276.686 452.073 275.941 450.896C274.508 448.633 274.899 428.991 276.569 419.381C281.331 391.973 296.879 361.218 321.754 330C334.84 313.577 344.407 303.31 373.004 275C389.587 258.584 398.195 249.269 401.562 244.099C416.862 220.6 416.474 200.882 400.394 184.673C389.895 174.089 374.717 166.208 351.649 159.361C344.981 157.382 330.51 152.414 319.491 148.32L299.457 140.876L297.058 136.355C293.819 130.248 284.859 122.467 278.071 119.865C270.947 117.134 255.47 116.348 245.026 118.187C239.03 119.243 236.323 119.265 231.526 118.298C205.169 112.984 185.888 114.647 159.526 124.51C126.577 136.837 105.995 153.236 94.278 176.5C87.82 189.32 84.777 203.365 82.523 230.756C78.636 277.974 75.7 299.321 70.043 321.5C66.691 334.642 59.9 354.829 57.219 359.62C55.523 362.65 41.108 337.287 33.097 317.179C17.617 278.323 13.872 233.196 22.669 191.517C36.489 126.04 79.203 70.96 139.614 40.716C159.94 30.54 185.185 22.658 205.62 20.106C210.518 19.495 215.651 18.803 217.026 18.57C218.401 18.336 228.976 18.29 240.526 18.469C256.333 18.712 264.493 19.318 273.526 20.916ZM218.047 142.599C237.793 148.463 250.797 169.194 247.351 189.315C241.391 224.104 199.18 236.946 174.961 211.338C154.148 189.331 163.352 152.869 192.24 142.891C198.909 140.588 210.82 140.453 218.047 142.599ZM197.977 154.304C181.187 159.047 171.964 176.721 177.618 193.316C179.661 199.313 186.438 206.837 192.655 210.012C199.446 213.481 212.425 213.567 218.817 210.187C224.729 207.06 230.751 200.784 233.21 195.188C236.142 188.512 236.117 178.145 233.152 171.401C227.345 158.195 211.488 150.487 197.977 154.304ZM361.342 217.163C364.703 218.954 365.959 221.15 365.994 225.295C366.051 232.071 359.032 236.214 352.983 232.977C348.99 230.84 347.4 225.11 349.613 220.831C351.879 216.451 356.998 214.85 361.342 217.163ZM396.992 247.541C394.724 250.274 378.81 260.421 368.469 265.728C340.33 280.169 310.394 288.403 286.526 288.266C268.3 288.162 253.375 283.423 243.526 274.612L239.526 271.034L247.026 274.38C256.305 278.52 261.22 279.734 274.042 281.05C287.103 282.39 308.569 280.821 324.026 277.397C349.328 271.792 377.48 260.288 393.28 249.097C398.143 245.652 398.782 245.384 396.992 247.541Z" fill="white"/>
</svg>
