<svg width="772" height="214" viewBox="0 0 772 214" fill="none" xmlns="http://www.w3.org/2000/svg">
<path fill-rule="evenodd" clip-rule="evenodd" d="M0 83.5879V167.176L39.0891 166.929C73.2237 166.714 78.953 166.537 84.291 165.534C102.425 162.126 117.249 154.775 128.405 143.658C144.217 127.899 152.157 105.546 151.01 80.009C149.902 55.3315 142.216 36.4758 127.512 22.3646C114.935 10.2951 100.735 3.77424 80.8942 0.957538C75.7615 0.228781 66.1581 0.0212072 37.1588 0.0115676L0 0V83.5879ZM82.0389 31.379C91.0696 33.8743 97.3966 37.4725 103.667 43.6779C108.313 48.2766 109.691 50.148 112.198 55.2673C117.066 65.2051 117.968 69.5886 118.018 83.5435C118.067 97.3758 117.375 100.983 112.903 110.213C109.35 117.545 105.341 122.585 99.8661 126.601C87.5751 135.616 77.4267 137.753 48.5799 137.401L32.4938 137.204L32.3291 83.3385L32.165 29.4722L54.5279 29.7145C75.1991 29.9388 77.2806 30.0647 82.0389 31.379ZM202.513 52.4294C185.131 55.5674 171.922 66.2706 165.615 82.3264C164.656 84.7678 163.99 86.8769 164.136 87.0145C164.28 87.152 170.286 88.8492 177.48 90.7861C188.935 93.8702 190.604 94.178 190.911 93.2635C194.361 82.9896 201.16 77.0818 210.902 75.8935C220.322 74.7438 228.751 77.2649 233.498 82.6516C236.876 86.4843 238.074 90.2161 238.074 96.9124V102.341L236.304 101.964C235.331 101.757 231.205 100.797 227.135 99.83C220.536 98.2633 218.552 98.0763 208.797 98.1065C196.263 98.1457 191.09 99.1675 182.738 103.256C171.419 108.797 164.744 120.079 164.744 133.67C164.744 156.41 183.693 171.775 208.416 169.082C221.614 167.644 231.341 162.2 237.69 152.698L239.361 150.199V158.643V167.087H253.516H267.672L267.65 129.332C267.626 88.632 267.456 86.0846 264.2 77.5175C258.881 63.5194 246.22 54.7538 227.457 52.0791C221.146 51.1794 208.448 51.3574 202.513 52.4294ZM343.277 52.3143C334.039 54.4235 324.883 59.6764 318.864 66.3194L315.316 70.2351L315.462 62.1076L315.608 53.9807L300.648 53.9813L285.688 53.982V133.991V214H301.131H316.574V183.759V153.518L320.046 157.25C331.1 169.131 350.953 172.673 370.111 166.182C378.691 163.275 382.835 160.665 389.6 153.908C396.097 147.42 398.813 143.248 401.92 134.986C407.51 120.123 407.392 100.074 401.626 85.2453C395.287 68.9388 383.827 58.2119 367.406 53.2121C361.931 51.5451 348.786 51.056 343.277 52.3143ZM477.612 52.3387C469.149 54.268 460.77 58.9393 454.449 65.252L450.41 69.2865V61.6339V53.982H435.289H420.168V133.991V214H435.61H451.053V183.818V153.636L455.468 158.045C463.261 165.829 472.563 169.214 486.121 169.2C502.385 169.183 514.88 163.973 525.371 152.833C532.14 145.646 535.76 138.891 538.659 128.041C540.384 121.585 540.985 107.353 539.858 99.6533C536.403 76.0542 522.128 58.6887 501.54 53.0412C496.158 51.565 482.736 51.1711 477.612 52.3387ZM597.115 52.6858C578.354 56.7479 563.591 69.8495 557.085 88.2117C551.881 102.899 552.418 121.407 558.458 135.584C568.2 158.449 592.568 171.704 619.957 169.037C640.719 167.015 654.804 157.791 663.499 140.521C664.894 137.75 665.946 135.037 665.838 134.492C665.713 133.862 661 131.679 652.893 128.495C641.901 124.178 640.097 123.636 639.784 124.563C635.674 136.756 627.206 142.667 613.844 142.667C597.907 142.667 586.827 133.733 584.555 119.05L584.132 116.318H622.713H661.294L661.675 113.908C663.847 100.155 662.008 86.8666 656.466 76.2675C653.634 70.8526 646.74 63.3742 641.369 59.8911C629.72 52.3355 612.033 49.4558 597.115 52.6858ZM730.323 52.4416C723.935 54.1561 718.295 58.2337 714.475 63.8999L712.291 67.1388V60.5607V53.982H696.848H681.405V110.535V167.087H696.825H712.244L712.428 127.679L712.612 88.2708L714.552 84.4824C717.172 79.3683 720.803 77.0676 726.917 76.6486C730.781 76.3845 731.671 76.558 734.811 78.189C737.746 79.714 738.662 80.6298 740.174 83.5532C741.879 86.8499 741.979 87.4637 741.71 93.0341L741.424 98.9907L755.947 98.8179L770.47 98.6456L770.954 96.3964C771.22 95.1593 771.633 91.5329 771.87 88.337C773.205 70.3829 764.166 56.4401 748.561 52.3805C743.899 51.1678 734.958 51.1974 730.323 52.4416ZM618.815 77.4455C624.163 79.0315 628.018 82.1111 630.413 86.7098C631.73 89.2399 632.504 91.6543 632.504 93.2391V95.7537H608.332H584.159L584.607 94.3078C587.06 86.3988 592.771 80.5508 600.704 77.8259C605.399 76.2136 614.049 76.0317 618.815 77.4455ZM351.04 78.4628C361.229 80.34 369.597 87.722 373.248 98.055C375.144 103.417 375.609 113.883 374.217 119.787C369.748 138.729 349.956 148.244 332.388 139.898C321.538 134.744 315.714 124.476 315.732 110.535C315.745 100.607 318.543 93.1716 324.687 86.7381C331.479 79.6266 341.047 76.6223 351.04 78.4628ZM485.52 78.4538C499.924 81.0732 509.606 93.8586 509.606 110.261C509.606 113.142 509.311 117.057 508.949 118.959C507.096 128.722 499.772 137.68 490.947 140.98C480.242 144.982 467.864 142.572 459.749 134.907C453.083 128.611 450.41 121.647 450.41 110.583C450.41 100.547 452.814 93.5559 458.318 87.5935C465.562 79.743 475.061 76.5522 485.52 78.4538ZM222.309 119.855C224.787 120.375 229.347 121.573 232.444 122.517L238.074 124.232V126.678C238.074 130.351 235.75 135.828 232.983 138.675C224.319 147.593 204.094 148.008 198.382 139.387C196.588 136.68 195.846 132.485 196.524 128.876C197.012 126.279 200.038 122.505 202.759 121.1C207.183 118.815 214.98 118.319 222.309 119.855Z" fill="url(#paint0_linear_11026_605)"/>
<defs>
<linearGradient id="paint0_linear_11026_605" x1="386" y1="0" x2="386" y2="214" gradientUnits="userSpaceOnUse">
<stop stop-color="#FBFBFB"/>
<stop offset="0.494792" stop-color="white"/>
<stop offset="1" stop-color="#FDFDFD"/>
</linearGradient>
</defs>
</svg>
