<svg width="489" height="171" viewBox="0 0 489 171" fill="none" xmlns="http://www.w3.org/2000/svg">
<path fill-rule="evenodd" clip-rule="evenodd" d="M232.256 0.61005C230.545 0.924609 227.834 1.55771 226.231 2.017C224.627 2.47588 221.76 3.53796 219.86 4.37759C217.959 5.21721 215.009 6.76569 213.305 7.8186C211.601 8.87192 208.608 11.089 206.654 12.7463C203.35 15.5486 200.645 18.4702 197.542 22.5881C196.841 23.5187 195.434 25.7612 194.415 27.5717C193.397 29.3821 191.927 32.3885 191.148 34.2524C190.37 36.1162 189.304 39.3455 188.779 41.4286C188.254 43.5117 187.608 46.9934 187.342 49.1658C187.044 51.6022 186.946 55.1153 187.085 58.3355C187.209 61.2064 187.66 65.2598 188.086 67.3429C188.513 69.426 189.418 72.745 190.099 74.7185C190.779 76.692 191.95 79.5625 192.701 81.0974C193.452 82.6323 194.693 84.8749 195.459 86.0809C196.226 87.2869 197.385 88.9865 198.034 89.858C199.253 91.493 201.723 94.3918 203.122 95.8279C204.302 97.0395 206.806 99.2697 208.557 100.668C209.405 101.346 211.708 102.894 213.675 104.108C215.641 105.323 218.79 106.978 220.672 107.787C222.553 108.595 225.667 109.676 227.591 110.188C229.515 110.7 232.82 111.342 234.935 111.614C237.357 111.925 240.811 112.021 244.264 111.872C248.012 111.711 251.054 111.325 253.872 110.653C256.141 110.112 259.814 108.94 262.035 108.047C264.256 107.155 267.606 105.48 269.479 104.326C271.353 103.172 274.215 101.155 275.839 99.8454C277.464 98.5349 280.024 96.1129 281.527 94.4632C283.031 92.813 285.124 90.2073 286.178 88.6723C287.232 87.1374 288.856 84.4463 289.786 82.6921C290.716 80.9379 292.026 78.0782 292.697 76.3371C293.368 74.5965 294.341 71.366 294.86 69.1593C295.379 66.9522 295.971 63.0252 296.177 60.4322C296.413 57.4616 296.417 54.1469 296.188 51.4702C295.988 49.1343 295.538 45.7846 295.189 44.0268C294.839 42.2686 294.029 39.3056 293.388 37.4418C292.746 35.578 291.521 32.6178 290.665 30.8636C289.808 29.1094 288.128 26.1595 286.931 24.3081C285.734 22.457 283.185 19.2584 281.267 17.2004C279.349 15.1424 276.283 12.3046 274.453 10.894C272.624 9.4831 269.083 7.26324 266.585 5.96115C264.087 4.65905 260.326 3.05078 258.228 2.38777C256.129 1.72436 252.859 0.908264 250.96 0.57377C248.782 0.190239 245.267 -0.0210627 241.437 0.00166214C238.029 0.0215962 234.001 0.288713 232.256 0.61005ZM250.331 4.54065C251.934 5.14505 254.41 6.4288 255.833 7.39281C257.256 8.35722 259.386 10.2163 260.566 11.5243C261.77 12.8579 263.395 15.2999 264.266 17.0855C265.121 18.8366 266.118 21.6449 266.483 23.3261C266.962 25.5348 267.089 27.3915 266.94 30.0188C266.826 32.0465 266.375 34.8001 265.92 36.2458C265.472 37.6711 264.967 39.0545 264.799 39.3196C264.588 39.6501 263.456 38.7718 261.201 36.5284C259.069 34.407 256.953 32.7422 255.19 31.7993C253.693 30.9991 251.268 29.9673 249.8 29.5065C248.332 29.0456 245.709 28.5572 243.969 28.4216C242.184 28.2821 239.562 28.3742 237.947 28.6326C236.374 28.8841 234.013 29.4566 232.699 29.9043C231.386 30.3517 229.133 31.4305 227.692 32.3016C226.251 33.1723 223.827 35.1442 222.305 36.6835C220.783 38.2224 219.465 39.4069 219.376 39.3152C219.286 39.2235 218.866 38.1355 218.442 36.8972C218.017 35.6593 217.484 33.2756 217.257 31.5999C217.03 29.9247 216.959 27.6382 217.1 26.5191C217.24 25.4 217.618 23.4082 217.939 22.0926C218.261 20.7769 219.219 18.3262 220.07 16.6466C221.121 14.5703 222.471 12.7316 224.287 10.9016C225.756 9.4213 227.787 7.68106 228.8 7.034C229.813 6.38734 231.442 5.50546 232.42 5.07448C233.399 4.64351 235.161 4.03951 236.337 3.73292C237.752 3.36374 239.987 3.22021 242.945 3.30832C246.65 3.41916 247.914 3.63006 250.331 4.54065ZM226.788 5.30572C225.71 6.05005 223.788 7.73847 222.517 9.0577C221.246 10.3765 219.619 12.4537 218.901 13.6728C218.184 14.8924 217.159 17.0038 216.623 18.3653C216.087 19.7268 215.393 22.2887 215.082 24.0581C214.713 26.1547 214.601 28.3172 214.762 30.2655C214.897 31.9101 215.193 34.1527 215.418 35.2491C215.645 36.3454 216.323 38.3664 216.927 39.7398L218.024 42.2375L216.683 45.1336C215.946 46.7263 215.071 49.4597 214.74 51.2075C214.364 53.1933 214.182 55.9183 214.256 58.4702C214.322 60.7168 214.478 62.5559 214.605 62.5567C214.731 62.5579 215.046 63.5008 215.306 64.6518C215.566 65.8028 216.176 67.5295 216.664 68.4887L217.549 70.2325L216.599 72.647C216.076 73.975 215.393 76.5094 215.082 78.2787C214.713 80.3754 214.601 82.5378 214.762 84.4862C214.897 86.1307 215.19 88.3733 215.413 89.4697C215.635 90.5661 216.486 92.9394 217.302 94.7439C218.118 96.5479 219.571 99.0696 220.529 100.347C221.487 101.624 223.032 103.308 223.962 104.09C224.892 104.872 226.527 106.09 227.594 106.796C229.516 108.069 229.521 108.079 228.174 107.805C227.426 107.652 225.064 106.832 222.926 105.981C220.789 105.131 217.686 103.643 216.033 102.676C214.379 101.708 211.836 100.012 210.381 98.9057C208.927 97.7993 206.075 95.1342 204.044 92.9829C202.014 90.8312 199.353 87.5261 198.132 85.638C196.91 83.7498 195.226 80.6999 194.388 78.8604C193.551 77.0209 192.484 74.3497 192.018 72.9244C191.552 71.4991 190.836 68.8081 190.425 66.9442C189.997 65.003 189.582 61.1709 189.451 57.9739C189.286 53.9061 189.388 51.3111 189.826 48.4055C190.157 46.2128 190.885 42.8109 191.443 40.8454C192.001 38.8799 192.993 36.0093 193.646 34.4665C194.301 32.9236 195.677 30.2257 196.706 28.4715C197.734 26.7173 199.781 23.7571 201.255 21.8932C202.727 20.0294 205.32 17.2662 207.016 15.7528C208.712 14.2394 211.411 12.1156 213.014 11.034C214.618 9.95195 217.329 8.37476 219.039 7.52956C220.75 6.68436 223.461 5.53815 225.064 4.98278C226.668 4.42742 228.152 3.96854 228.363 3.96296C228.574 3.95738 227.865 4.56138 226.788 5.30572ZM259.345 5.39821C260.908 5.97391 263.411 7.07187 264.907 7.83814C266.404 8.6044 269.115 10.2215 270.932 11.4311C272.954 12.7766 275.906 15.3505 278.536 18.0607C280.995 20.5943 283.768 23.9421 285.013 25.8801C286.211 27.7439 287.818 30.5558 288.586 32.1286C289.353 33.7014 290.585 36.841 291.323 39.1055C292.061 41.37 292.947 44.8373 293.292 46.8108C293.66 48.9143 293.923 52.6256 293.929 55.7811C293.935 59.0408 293.688 62.6337 293.301 64.8918C292.95 66.9422 292.213 70.0802 291.663 71.8647C291.114 73.6492 290.014 76.5465 289.22 78.3026C288.426 80.0592 286.962 82.8345 285.966 84.4702C284.97 86.106 282.946 88.9084 281.468 90.6976C279.991 92.4869 277.506 95.0772 275.946 96.4538C274.387 97.8304 271.91 99.7537 270.441 100.728C268.973 101.702 266.428 103.182 264.785 104.017C263.142 104.852 260.505 106.007 258.926 106.584C257.346 107.16 255.974 107.551 255.877 107.451C255.78 107.351 256.245 106.981 256.91 106.628C257.575 106.275 259.335 104.811 260.82 103.373C262.306 101.936 264.2 99.6548 265.028 98.3045C265.857 96.9537 266.987 94.6825 267.54 93.2572C268.093 91.8319 268.756 89.4223 269.014 87.9021C269.287 86.2878 269.398 83.4688 269.28 81.1245C269.13 78.1356 268.807 76.3471 268.017 74.1205C267.434 72.4759 266.957 70.5921 266.957 69.9343C266.957 69.2765 267.442 67.3927 268.036 65.7482C268.936 63.256 269.146 61.9412 269.294 57.8535C269.431 54.0883 269.317 52.2819 268.804 50.0792C268.437 48.5008 267.644 46.1462 267.043 44.8469C266.087 42.7782 266.016 42.3811 266.473 41.6575C266.76 41.2026 267.466 39.3953 268.041 37.6412C268.838 35.2124 269.131 33.406 269.27 30.0662C269.401 26.9465 269.275 24.8216 268.836 22.7046C268.496 21.068 267.619 18.4335 266.886 16.8507C266.153 15.2684 264.859 13.0194 264.009 11.8533C263.16 10.6875 261.79 9.08282 260.965 8.28745C260.14 7.49248 258.696 6.28129 257.755 5.59636C256.814 4.91142 256.148 4.35127 256.274 4.35127C256.4 4.35127 257.782 4.82251 259.345 5.39821ZM248.996 31.8862C250.478 32.3491 252.828 33.3693 254.218 34.1531C255.721 35.0003 258.054 36.9144 259.978 38.8775C262.778 41.7356 263.156 42.2822 262.803 42.9588C262.579 43.3881 261.487 44.7592 260.377 46.0055C259.266 47.2514 257.34 48.98 256.096 49.8464C254.852 50.7127 253.038 51.772 252.064 52.2002C251.09 52.6284 249.218 53.2643 247.905 53.6135C246.537 53.9767 244.011 54.241 241.996 54.2315C240.059 54.2223 237.425 53.9325 236.143 53.5872C234.86 53.2419 232.761 52.4542 231.478 51.8366C230.195 51.219 228.076 49.8835 226.768 48.8684C225.461 47.8534 223.668 46.0613 222.784 44.8864C221.9 43.7115 221.177 42.456 221.177 42.096C221.177 41.736 222.48 40.1058 224.072 38.4732C226.344 36.1429 227.743 35.1103 230.583 33.6699C232.572 32.6608 235.424 31.5768 236.92 31.2607C238.609 30.9038 240.904 30.7539 242.971 30.8648C244.803 30.9632 247.514 31.4229 248.996 31.8862ZM220.789 46.4871C221.323 47.2932 222.897 48.9167 224.287 50.0948C225.677 51.2733 228.19 52.9449 229.871 53.8101C231.553 54.6748 233.171 55.3825 233.467 55.3825C233.763 55.3825 234.005 55.518 234.005 55.6835C234.005 55.8489 232.968 56.3971 231.7 56.901C230.433 57.405 228.378 58.4946 227.133 59.3226C225.888 60.1503 224.059 61.6394 223.067 62.6313C222.076 63.6236 220.739 65.1793 220.097 66.0882L218.929 67.7416L218.268 66.0472C217.904 65.1155 217.36 63.0363 217.059 61.4273C216.759 59.8182 216.516 57.5756 216.519 56.4438C216.523 55.3119 216.772 53.1945 217.073 51.7389C217.374 50.2829 218.005 48.1747 218.475 47.0544C218.945 45.9337 219.439 45.0179 219.573 45.0195C219.707 45.0211 220.254 45.6814 220.789 46.4871ZM266.503 50.7434C266.97 52.5765 267.078 54.3387 266.936 57.7745C266.798 61.139 266.512 63.0439 265.862 64.9317L264.977 67.504L264.363 66.5264C264.025 65.9886 262.881 64.5976 261.823 63.4346C260.763 62.2721 258.725 60.5219 257.293 59.5455C255.862 58.5691 253.578 57.338 252.219 56.8093C250.216 56.0311 249.895 55.7919 250.525 55.5503C250.953 55.3861 252.208 54.8486 253.314 54.3555C254.42 53.8627 256.351 52.7448 257.605 51.8717C258.859 50.9986 260.927 49.1379 262.202 47.7374L264.519 45.191L265.2 46.7438C265.574 47.5982 266.161 49.3979 266.503 50.7434ZM250.331 58.7613C251.934 59.3657 254.41 60.6494 255.833 61.6134C257.256 62.5779 259.355 64.4062 260.497 65.6768C261.64 66.947 262.817 68.4576 263.113 69.0337C263.616 70.0129 263.557 70.2126 262.209 72.096C261.416 73.2043 259.786 75.0071 258.588 76.1019C257.391 77.1967 255.087 78.7982 253.468 79.6602C251.849 80.5225 249.388 81.5332 247.998 81.9063C246.535 82.299 244 82.5869 241.973 82.5901C240.008 82.5933 237.368 82.3106 235.948 81.945C234.559 81.5866 232.11 80.6317 230.506 79.8224C228.259 78.6878 226.768 77.5069 223.995 74.6655C222.018 72.6386 220.4 70.7229 220.4 70.408C220.4 70.0934 221.041 68.9611 221.825 67.8919C222.61 66.8222 224.348 64.9428 225.687 63.7153C227.028 62.4874 229.406 60.8336 230.972 60.0399C232.539 59.2461 234.867 58.3263 236.147 57.9962C237.752 57.582 239.863 57.4369 242.945 57.529C246.65 57.6398 247.914 57.8507 250.331 58.7613ZM266.492 77.6612C266.959 79.7598 267.09 81.6456 266.952 84.2394C266.822 86.6877 266.418 88.9167 265.715 91.0644C265.141 92.8186 264.039 95.2382 263.266 96.4414C262.494 97.6447 261.001 99.5627 259.949 100.703C258.897 101.844 256.924 103.521 255.566 104.429C254.207 105.336 251.851 106.523 250.33 107.066C248.808 107.608 246.306 108.196 244.769 108.372C243.231 108.547 240.758 108.54 239.273 108.356C237.788 108.171 235.689 107.724 234.608 107.361C233.528 106.999 231.854 106.297 230.889 105.801C229.924 105.306 228.052 104.066 226.73 103.046C225.407 102.027 223.503 100.079 222.498 98.7199C221.493 97.36 220.107 94.9914 219.418 93.4565C218.729 91.9216 217.974 89.7687 217.74 88.6723C217.507 87.576 217.21 85.6922 217.08 84.4862C216.951 83.2802 217.016 81.2102 217.227 79.8866C217.437 78.563 217.91 76.4189 218.277 75.1224L218.945 72.7654L220.144 74.3398C220.803 75.2061 222.136 76.6912 223.106 77.6404C224.076 78.5897 226.182 80.1641 227.785 81.1393C229.389 82.1144 231.798 83.2618 233.139 83.6892C234.481 84.1166 237.022 84.65 238.786 84.8749C240.991 85.156 243.002 85.154 245.223 84.8681C247 84.6397 249.842 83.9332 251.539 83.2977C253.236 82.6626 255.837 81.3167 257.319 80.3064C258.8 79.2962 261.07 77.2856 262.362 75.8388C263.655 74.3916 264.727 73.0094 264.745 72.767C264.762 72.5246 265.015 72.8646 265.307 73.5225C265.599 74.1803 266.132 76.0425 266.492 77.6612ZM54.6988 145.099C53.8899 145.307 52.7529 145.732 52.1722 146.043C51.5911 146.355 50.5991 147.166 49.9674 147.848C48.9983 148.894 48.795 149.479 48.6629 151.609C48.5517 153.396 48.6862 154.488 49.1247 155.358C49.4652 156.032 50.2566 156.96 50.8844 157.418C51.5118 157.876 53.9043 158.876 56.2016 159.639C58.4985 160.403 60.7075 161.334 61.1102 161.708C61.5848 162.148 61.8021 162.802 61.7271 163.565C61.6548 164.297 61.2027 165.053 60.5303 165.566C59.7322 166.174 58.8988 166.381 57.3405 166.358C55.8984 166.337 54.5686 165.994 53.1346 165.275C51.9817 164.696 50.6096 164.222 50.0856 164.222C49.562 164.222 48.9233 164.438 48.6668 164.701C48.4102 164.964 48.2003 165.755 48.2003 166.459C48.2003 167.397 48.5175 168.013 49.3847 168.762C50.0366 169.324 51.4674 170.058 52.5652 170.392C53.6629 170.727 55.6344 171 56.9463 171C58.2582 171 60.2096 170.732 61.2824 170.406C62.4155 170.061 63.8067 169.24 64.602 168.448C65.4945 167.559 66.1324 166.428 66.434 165.2C66.6886 164.163 66.7796 162.757 66.6365 162.074C66.4931 161.392 66.1339 160.347 65.8377 159.753C65.5415 159.158 64.5569 158.234 63.6493 157.699C62.742 157.164 60.4416 156.246 58.5369 155.658C56.6326 155.071 54.6833 154.327 54.2048 154.005C53.7263 153.684 53.2551 153.109 53.158 152.727C53.0604 152.345 53.1269 151.628 53.3053 151.133C53.4841 150.638 54.2673 149.96 55.0459 149.626C56.0088 149.214 56.9751 149.107 58.0647 149.293C58.9463 149.444 60.3437 149.918 61.1701 150.348C62.0941 150.828 63.0347 151.036 63.6131 150.887C64.1391 150.752 64.7237 150.187 64.939 149.606C65.2325 148.813 65.1754 148.333 64.698 147.586C64.3536 147.047 63.3158 146.263 62.3918 145.844C61.4675 145.424 59.6895 145 58.4402 144.901C57.1908 144.801 55.5073 144.891 54.6988 145.099ZM381.839 145.826C380.732 146.218 379.065 147.178 378.135 147.96C377.206 148.741 375.934 150.342 375.309 151.519C374.365 153.296 374.146 154.239 374.012 157.102C373.89 159.689 374.022 161.077 374.541 162.68C375.04 164.221 375.834 165.43 377.405 167.039C378.883 168.553 380.19 169.479 381.493 169.933C382.639 170.333 384.625 170.601 386.435 170.601C388.57 170.601 390.112 170.351 391.674 169.752C393.065 169.218 394.527 168.247 395.607 167.139C396.553 166.169 397.7 164.533 398.158 163.503C398.807 162.042 398.992 160.842 399.001 158.043C399.012 154.904 398.876 154.169 397.922 152.177C397.309 150.897 396.057 149.199 395.064 148.303C394.092 147.425 392.346 146.342 391.184 145.896C389.809 145.368 388.161 145.09 386.462 145.099C384.997 145.106 382.97 145.425 381.839 145.826ZM323.962 146.285C322.877 146.724 321.297 147.691 320.451 148.433C319.606 149.176 318.395 150.745 317.76 151.92C316.686 153.908 316.606 154.347 316.606 158.242C316.606 161.681 316.753 162.748 317.432 164.222C317.886 165.209 318.848 166.627 319.57 167.374C320.291 168.121 321.669 169.096 322.631 169.542C323.835 170.1 325.471 170.404 327.879 170.515C330.761 170.648 331.763 170.528 333.568 169.83C334.772 169.365 336.215 168.549 336.774 168.017C337.766 167.075 337.791 166.93 337.791 162.063C337.791 157.539 337.721 157.036 337.039 156.661C336.626 156.435 334.299 156.249 331.869 156.249C328.951 156.249 327.293 156.411 326.985 156.727C326.728 156.99 326.518 157.762 326.518 158.442C326.518 159.121 326.728 159.893 326.985 160.156C327.268 160.446 328.643 160.634 330.483 160.634H333.515V162.794V164.954L331.776 165.635C330.599 166.096 329.35 166.258 327.914 166.136C326.536 166.018 325.302 165.616 324.399 164.989C323.608 164.44 322.59 163.171 322.041 162.051C321.429 160.799 321.079 159.416 321.085 158.264C321.09 157.265 321.412 155.729 321.801 154.85C322.191 153.971 323.134 152.689 323.897 152.002C324.661 151.314 325.933 150.532 326.725 150.265C327.516 149.997 328.84 149.87 329.668 149.984C330.495 150.098 331.908 150.747 332.809 151.426C333.709 152.105 334.722 152.661 335.06 152.661C335.398 152.661 336.063 152.381 336.538 152.04C337.104 151.634 337.402 151.007 337.402 150.227C337.402 149.461 337.048 148.698 336.412 148.093C335.868 147.575 334.774 146.826 333.983 146.428C333.014 145.94 331.464 145.669 329.239 145.596C326.668 145.512 325.498 145.665 323.962 146.285ZM0.672082 146.58C0.0695781 147.263 0 148.472 0 158.294C0 166.28 0.12633 169.375 0.466453 169.724C0.791417 170.058 2.82749 170.2 7.17174 170.194C12.602 170.186 13.6372 170.08 15.1598 169.374C16.1218 168.928 17.4932 167.99 18.2069 167.289C18.921 166.589 19.9542 165.119 20.5026 164.023C21.1988 162.632 21.5553 161.176 21.6812 159.207C21.804 157.287 21.659 155.67 21.2284 154.151C20.8801 152.922 20.0218 151.142 19.3213 150.195C18.6143 149.24 17.1026 147.942 15.9232 147.278C13.851 146.112 13.6473 146.079 7.57172 145.95C1.84172 145.828 1.29091 145.878 0.672082 146.58ZM33.7208 146.314C33.0985 146.686 33.0405 147.678 33.0405 158.014C33.0405 167.739 33.1245 169.379 33.6442 169.821C33.9766 170.104 34.7882 170.335 35.4486 170.335C36.1697 170.335 36.8596 170.04 37.1772 169.595C37.5912 169.014 37.7051 166.521 37.7051 158.028C37.7051 148.047 37.6495 147.151 36.9941 146.543C36.6031 146.18 35.8599 145.889 35.3421 145.895C34.8247 145.902 34.0951 146.09 33.7208 146.314ZM76.0208 146.509C75.685 146.854 75.4102 147.538 75.4102 148.028C75.4102 148.519 75.6582 149.268 75.9618 149.694C76.4224 150.341 77.0933 150.491 80.0432 150.607L83.5731 150.747V159.8C83.5731 166.799 83.6929 169.022 84.101 169.595C84.4186 170.04 85.1085 170.335 85.8296 170.335C86.49 170.335 87.3017 170.104 87.634 169.821C88.1483 169.384 88.2377 167.928 88.2377 159.988V150.667H91.1278C92.7172 150.667 94.4617 150.494 95.004 150.283C95.5661 150.064 96.097 149.462 96.2382 148.884C96.3956 148.242 96.2537 147.507 95.8514 146.877L95.2166 145.883H85.9241C77.9947 145.883 76.5421 145.975 76.0208 146.509ZM106.729 146.509C106.204 147.048 106.118 148.659 106.118 158.043C106.118 167.427 106.204 169.037 106.729 169.576C107.065 169.921 107.825 170.203 108.418 170.203C109.011 170.203 109.786 169.875 110.14 169.473C110.64 168.907 110.783 167.931 110.783 165.088V161.432H113.28H115.778L118.411 165.319C119.859 167.457 121.315 169.424 121.647 169.692C121.979 169.959 122.704 170.183 123.259 170.19C123.813 170.197 124.557 169.875 124.911 169.473C125.264 169.072 125.554 168.305 125.554 167.768C125.554 167.167 124.665 165.672 123.244 163.884L120.933 160.977L122.622 159.31C123.771 158.178 124.461 157.07 124.779 155.852C125.142 154.46 125.143 153.586 124.781 151.928C124.438 150.353 123.926 149.396 122.823 148.264C122.001 147.422 120.661 146.542 119.846 146.31C119.03 146.078 115.883 145.887 112.851 145.885C108.357 145.883 107.227 145.999 106.729 146.509ZM137.118 146.314C136.496 146.686 136.438 147.678 136.438 158.014C136.438 167.739 136.522 169.379 137.042 169.821C137.374 170.104 138.186 170.335 138.846 170.335C139.567 170.335 140.257 170.04 140.575 169.595C140.989 169.014 141.103 166.521 141.103 158.028C141.103 148.047 141.047 147.151 140.392 146.543C140.001 146.18 139.257 145.889 138.74 145.895C138.222 145.902 137.492 146.09 137.118 146.314ZM153.23 146.362C152.89 146.711 152.764 149.861 152.764 158.043C152.764 166.225 152.89 169.375 153.23 169.724C153.559 170.061 155.799 170.203 160.823 170.203C166.009 170.203 168.289 170.053 169.199 169.654C169.887 169.352 170.92 168.589 171.494 167.959C172.069 167.329 172.725 166.309 172.952 165.692C173.179 165.074 173.366 163.858 173.366 162.988C173.366 162.118 173.119 160.801 172.818 160.063C172.517 159.323 171.756 158.328 171.127 157.851L169.982 156.984L170.702 155.535C171.098 154.739 171.422 153.445 171.422 152.661C171.422 151.876 171.028 150.434 170.547 149.456C169.908 148.156 169.206 147.436 167.938 146.78C166.354 145.961 165.663 145.883 159.95 145.883C155.605 145.883 153.555 146.029 153.23 146.362ZM184.472 146.509C183.955 147.039 183.862 148.409 183.869 155.38C183.877 162.494 183.975 163.843 184.586 165.219C184.976 166.096 185.998 167.465 186.859 168.261C187.72 169.056 189.103 169.949 189.932 170.243C190.762 170.538 192.665 170.778 194.162 170.778C195.658 170.778 197.561 170.538 198.391 170.243C199.221 169.949 200.604 169.056 201.464 168.261C202.325 167.465 203.348 166.096 203.737 165.219C204.35 163.84 204.447 162.489 204.454 155.232C204.46 149.226 204.33 146.704 203.996 146.362C203.74 146.098 202.963 145.883 202.269 145.883C201.407 145.883 200.817 146.163 200.403 146.769C199.909 147.493 199.798 148.994 199.798 154.962C199.798 160.824 199.677 162.508 199.187 163.48C198.8 164.248 197.931 164.984 196.811 165.492C195.453 166.108 194.634 166.229 193.259 166.018C191.911 165.811 191.11 165.372 189.999 164.232L188.525 162.721V155.188C188.525 149.016 188.416 147.495 187.92 146.769C187.534 146.203 186.912 145.883 186.199 145.883C185.585 145.883 184.808 146.165 184.472 146.509ZM214.402 146.509C214.067 146.854 213.792 147.538 213.792 148.028C213.792 148.519 214.04 149.268 214.343 149.694C214.804 150.341 215.475 150.491 218.425 150.607L221.955 150.747V159.8C221.955 166.799 222.074 169.022 222.483 169.595C222.8 170.04 223.49 170.335 224.211 170.335C224.872 170.335 225.683 170.104 226.016 169.821C226.53 169.384 226.619 167.928 226.619 159.988V150.667H229.509C231.099 150.667 232.843 150.494 233.386 150.283C233.948 150.064 234.479 149.462 234.62 148.884C234.777 148.242 234.635 147.507 234.233 146.877L233.598 145.883H224.306C216.376 145.883 214.924 145.975 214.402 146.509ZM245.499 146.509C244.973 147.049 244.889 148.673 244.889 158.191C244.889 166.258 245.015 169.375 245.355 169.724C245.686 170.064 248.044 170.203 253.491 170.203C259.944 170.203 261.256 170.103 261.77 169.576C262.106 169.231 262.381 168.514 262.381 167.982C262.381 167.449 262.031 166.654 261.603 166.216C260.897 165.492 260.308 165.418 255.19 165.418H249.553V163.026V160.634H254.218C258.364 160.634 258.969 160.546 259.66 159.837C260.087 159.398 260.437 158.604 260.437 158.071C260.437 157.539 260.162 156.821 259.827 156.476C259.337 155.974 258.258 155.85 254.385 155.85H249.553V153.259V150.667H255.176C260.337 150.667 260.832 150.604 261.201 149.896C261.422 149.472 261.603 148.675 261.603 148.124C261.603 147.543 261.242 146.865 260.739 146.504C260.036 145.999 258.593 145.883 252.993 145.883C247.254 145.883 246.009 145.987 245.499 146.509ZM273.159 146.58C272.557 147.263 272.487 148.472 272.487 158.294C272.487 166.28 272.614 169.375 272.954 169.724C273.279 170.058 275.315 170.2 279.659 170.194C285.089 170.186 286.124 170.08 287.647 169.374C288.609 168.928 289.98 167.99 290.694 167.289C291.408 166.589 292.441 165.119 292.99 164.023C293.686 162.632 294.043 161.176 294.168 159.207C294.291 157.287 294.146 155.67 293.716 154.151C293.367 152.922 292.509 151.142 291.809 150.195C291.102 149.24 289.59 147.942 288.41 147.278C286.338 146.112 286.135 146.079 280.059 145.95C274.329 145.828 273.778 145.878 273.159 146.58ZM349.919 146.362C349.578 146.711 349.452 149.861 349.452 158.043C349.452 166.225 349.578 169.375 349.919 169.724C350.247 170.061 352.467 170.203 357.421 170.203C362.375 170.203 364.595 170.061 364.923 169.724C365.18 169.461 365.389 168.664 365.389 167.953C365.389 167.069 365.116 166.463 364.525 166.039C363.853 165.556 362.561 165.418 358.695 165.418H353.728V156.422C353.728 150.983 353.569 147.121 353.326 146.654C353.054 146.133 352.511 145.883 351.654 145.883C350.956 145.883 350.175 146.098 349.919 146.362ZM410.169 146.362C409.829 146.711 409.703 149.861 409.703 158.043C409.703 166.225 409.829 169.375 410.169 169.724C410.498 170.061 412.737 170.203 417.761 170.203C422.948 170.203 425.228 170.053 426.138 169.654C426.826 169.352 427.859 168.589 428.433 167.959C429.008 167.329 429.663 166.309 429.891 165.692C430.118 165.074 430.304 163.858 430.304 162.988C430.304 162.118 430.058 160.801 429.757 160.063C429.456 159.323 428.695 158.328 428.065 157.851L426.921 156.984L427.641 155.535C428.037 154.739 428.361 153.445 428.361 152.661C428.361 151.876 427.967 150.434 427.486 149.456C426.847 148.156 426.144 147.436 424.877 146.78C423.293 145.961 422.601 145.883 416.889 145.883C412.543 145.883 410.493 146.029 410.169 146.362ZM450.056 146.381C449.72 146.656 447.15 151.474 444.345 157.089C441.54 162.705 439.245 167.663 439.245 168.108C439.245 168.554 439.564 169.323 439.955 169.817C440.542 170.561 440.9 170.671 442.034 170.453C443.173 170.233 443.582 169.853 444.459 168.202L445.513 166.216H451.661H457.809L458.298 167.428C458.568 168.095 459.126 169.082 459.54 169.621C459.953 170.16 460.605 170.601 460.989 170.601C461.372 170.601 462.146 170.229 462.709 169.775C463.273 169.321 463.734 168.602 463.734 168.177C463.734 167.753 461.614 163.056 459.022 157.741C456.431 152.425 453.97 147.582 453.554 146.979C453.043 146.239 452.451 145.883 451.731 145.883C451.146 145.883 450.392 146.108 450.056 146.381ZM473.529 146.362C473.189 146.711 473.063 149.861 473.063 158.043C473.063 166.225 473.189 169.375 473.529 169.724C473.858 170.061 476.078 170.203 481.031 170.203C485.985 170.203 488.205 170.061 488.534 169.724C488.79 169.461 489 168.664 489 167.953C489 167.069 488.727 166.463 488.136 166.039C487.463 165.556 486.172 165.418 482.305 165.418H477.339V156.422C477.339 150.983 477.18 147.121 476.936 146.654C476.665 146.133 476.122 145.883 475.265 145.883C474.567 145.883 473.786 146.098 473.529 146.362ZM389.405 150.489C390.2 150.83 391.347 151.592 391.954 152.183C392.561 152.775 393.281 153.707 393.554 154.255C393.827 154.804 394.167 155.912 394.309 156.719C394.452 157.526 394.358 159.041 394.102 160.085C393.781 161.39 393.138 162.494 392.048 163.61C391.148 164.533 389.77 165.447 388.862 165.725C387.981 165.995 386.748 166.216 386.119 166.216C385.492 166.216 384.057 165.745 382.932 165.17C381.656 164.518 380.521 163.559 379.916 162.622C379.314 161.689 378.864 160.294 378.728 158.941C378.6 157.671 378.705 156.152 378.979 155.3C379.238 154.495 379.909 153.277 380.47 152.594C381.03 151.91 382.196 151.022 383.06 150.619C383.924 150.217 385.38 149.883 386.295 149.879C387.211 149.874 388.61 150.149 389.405 150.489ZM11.8732 150.714C13.0452 151.016 14.0255 151.646 14.9398 152.684C15.6791 153.523 16.4806 154.958 16.7205 155.872C16.9638 156.799 17.0388 158.265 16.8899 159.184C16.743 160.091 16.3967 161.282 16.1203 161.83C15.8439 162.379 15.1213 163.309 14.5141 163.898C13.9073 164.487 12.9181 165.16 12.3163 165.393C11.7146 165.626 9.74657 165.817 7.94333 165.817H4.66455V158.043V150.269H7.40769C8.91667 150.269 10.9259 150.469 11.8732 150.714ZM119.563 151.587C120.086 152.21 120.501 153.214 120.501 153.857C120.501 154.499 120.086 155.503 119.563 156.127C118.669 157.194 118.444 157.252 114.704 157.383L110.783 157.519V153.857V150.194L114.704 150.331C118.444 150.462 118.669 150.52 119.563 151.587ZM165.828 151.272C166.537 152 166.737 152.52 166.553 153.166C166.415 153.655 165.947 154.37 165.514 154.754C164.886 155.311 163.995 155.451 161.078 155.451H157.428V152.86V150.269H161.139C164.585 150.269 164.919 150.34 165.828 151.272ZM284.36 150.714C285.532 151.016 286.513 151.646 287.427 152.684C288.166 153.523 288.968 154.958 289.208 155.872C289.451 156.799 289.526 158.265 289.377 159.184C289.23 160.091 288.884 161.282 288.608 161.83C288.331 162.379 287.609 163.309 287.001 163.898C286.395 164.487 285.405 165.16 284.804 165.393C284.202 165.626 282.234 165.817 280.431 165.817H277.152V158.043V150.269H279.895C281.404 150.269 283.413 150.469 284.36 150.714ZM422.767 151.272C423.476 152 423.675 152.52 423.492 153.166C423.353 153.655 422.886 154.37 422.453 154.754C421.825 155.311 420.934 155.451 418.017 155.451H414.367V152.86V150.269H418.078C421.524 150.269 421.858 150.34 422.767 151.272ZM453.436 157.54L455.067 161.232L451.576 161.348C449.657 161.411 448.012 161.387 447.922 161.294C447.831 161.201 448.589 159.407 449.606 157.307C450.623 155.207 451.534 153.57 451.63 153.669C451.726 153.767 452.538 155.509 453.436 157.54ZM167.358 160.816C167.883 161.354 168.312 162.259 168.312 162.827C168.312 163.395 167.883 164.3 167.358 164.838C166.456 165.765 166.163 165.817 161.916 165.817H157.428V162.827V159.837H161.916C166.163 159.837 166.456 159.89 167.358 160.816ZM424.297 160.816C424.822 161.354 425.251 162.259 425.251 162.827C425.251 163.395 424.822 164.3 424.297 164.838C423.394 165.765 423.102 165.817 418.855 165.817H414.367V162.827V159.837H418.855C423.102 159.837 423.394 159.89 424.297 160.816Z" fill="#FAFAFA"/>
</svg>
