<svg width="589" height="106" viewBox="0 0 589 106" fill="none" xmlns="http://www.w3.org/2000/svg">
<path fill-rule="evenodd" clip-rule="evenodd" d="M246 1.06978C244.625 1.60878 242.723 3.04278 241.772 4.25578C240.719 5.60078 240.036 8.24878 240.022 11.0378C240.005 14.5338 240.541 16.1218 242.293 17.7678C243.554 18.9518 245.986 20.4098 247.697 21.0058C249.937 21.7868 251.945 21.7848 254.867 20.9978C257.1 20.3968 259.616 18.9208 260.459 17.7178C261.301 16.5148 262.257 14.1078 262.584 12.3678C262.963 10.3448 262.58 8.05078 261.522 6.00478C260.567 4.15678 258.429 2.20378 256.466 1.38278C254.595 0.601783 252.037 -0.00921873 250.782 0.0247813C249.527 0.0597813 247.375 0.529783 246 1.06978ZM363.259 1.44878C361.291 2.30478 359.358 4.23978 358.34 6.37478C356.917 9.35878 356.846 10.5048 357.873 13.9308C358.568 16.2538 360.178 18.6878 361.659 19.6578C363.212 20.6758 366.229 21.3468 369.252 21.3468C373.634 21.3468 374.629 20.9418 377.134 18.1388C379.346 15.6618 380 13.9498 380 10.6348C380 7.65578 379.358 5.64978 377.904 4.08878C376.751 2.85178 374.697 1.41678 373.339 0.900781C371.981 0.383781 369.887 -0.020217 368.685 0.00078301C367.483 0.022783 365.041 0.673781 363.259 1.44878ZM0 53.9618V103.962H34H68V95.4618V86.9618H45H22V73.9618V60.9618H41.5H61V52.4618V43.9618H41.5H22V32.9618V21.9618H45H68V12.9618V3.96178H34H0V53.9618ZM115.194 28.8878C113.376 29.3518 109.651 31.1238 106.915 32.8238L101.941 35.9158L101.345 32.9388L100.75 29.9618H91.375H82V66.9618V103.962H92H102V77.8628V51.7638L105.072 48.8948C106.761 47.3168 109.729 45.7278 111.668 45.3638C113.607 45.0008 116.984 45.2398 119.174 45.8958C125.597 47.8198 126 49.7718 126 78.9298V103.962H136H146V75.5878C146 53.1018 145.693 46.3438 144.521 43.0218C143.708 40.7158 142.095 37.4988 140.937 35.8728C139.779 34.2468 137.051 32.0078 134.874 30.8978C132.653 29.7648 128.194 28.6958 124.708 28.4618C121.294 28.2318 117.012 28.4238 115.194 28.8878ZM299 29.5008C295.975 30.3468 291.816 32.1508 289.759 33.5088C287.701 34.8678 284.811 37.8018 283.336 40.0308C281.549 42.7298 280.507 45.8598 280.213 49.4098C279.97 52.3398 280.304 56.3528 280.955 58.3258C281.618 60.3338 284.095 63.6358 286.58 65.8238C289.757 68.6198 293.367 70.4708 299.261 72.3258C303.792 73.7518 309.354 75.3798 311.619 75.9438C313.885 76.5078 316.923 77.8998 318.369 79.0378C320.131 80.4238 321 82.0658 321 84.0118C321 86.0098 320.216 87.4288 318.486 88.5628C317.103 89.4698 314.052 90.4268 311.705 90.6918C309.056 90.9898 306.006 90.5728 303.656 89.5918C300.84 88.4148 299.441 86.9838 298.186 83.9968L296.5 79.9818L286.75 79.9718C281.387 79.9668 277 80.3398 277 80.8028C277 81.2658 277.637 83.7608 278.416 86.3478C279.194 88.9348 281.023 92.6138 282.479 94.5228C283.934 96.4318 287.408 99.2968 290.197 100.89C292.987 102.483 298.172 104.334 301.72 105.003C305.616 105.739 310.811 105.952 314.835 105.543C318.501 105.171 323.974 103.737 326.997 102.356C330.02 100.976 333.552 98.8598 334.844 97.6538C336.137 96.4478 338.051 93.7918 339.097 91.7518C340.33 89.3468 340.994 86.0038 340.984 82.2518C340.972 78.1068 340.324 75.3248 338.706 72.4618C337.282 69.9438 334.502 67.2988 331.201 65.3218C328.035 63.4268 321.738 61.1498 315.31 59.5768C309.455 58.1438 303.614 56.2838 302.332 55.4438C300.634 54.3318 300 52.9758 300 50.4618C300 47.8108 300.629 46.5958 302.706 45.2348C304.33 44.1708 307.297 43.4618 310.125 43.4618C313.738 43.4618 315.442 44.0278 317.419 45.8858C318.839 47.2198 320 49.3568 320 50.6358C320 52.9228 320.177 52.9618 330.5 52.9618H341V50.4298C341 49.0368 340.303 46.2248 339.451 44.1798C338.599 42.1348 336.255 38.7718 334.242 36.7058C332.159 34.5678 328.235 32.0708 325.138 30.9118C322.144 29.7918 316.276 28.6698 312.097 28.4188C307.022 28.1128 302.674 28.4718 299 29.5008ZM421.5 29.3038C418.75 30.0188 415.045 31.3668 413.266 32.2998C411.487 33.2328 408.392 35.6368 406.388 37.6408C404.384 39.6448 401.339 44.2498 399.622 47.8728C396.639 54.1688 396.501 55.0178 396.52 66.9618C396.537 77.6298 396.876 80.2998 398.831 85.1828C400.15 88.4768 403.017 92.8538 405.591 95.5018C408.048 98.0308 412.633 101.282 415.78 102.728C420.564 104.925 422.972 105.364 430.5 105.409C436.743 105.446 441.099 104.904 444.72 103.642C447.611 102.633 452.092 99.8868 454.761 97.4868C457.422 95.0938 460.783 90.7008 462.261 87.6808C463.735 84.6718 465.472 78.9908 466.122 75.0558C467.01 69.6748 467.026 65.9398 466.184 59.9908C465.569 55.6398 464.125 50.0788 462.976 47.6348C461.827 45.1898 459.318 41.3568 457.401 39.1178C455.417 36.7988 451.243 33.7358 447.708 32.0018C443.02 29.7038 439.664 28.8418 434 28.4808C429.491 28.1948 424.506 28.5228 421.5 29.3038ZM513.248 29.7778C510.359 30.8108 506.984 32.5128 505.748 33.5588C504.511 34.6058 503.221 35.8438 502.88 36.3108C502.539 36.7778 501.956 35.5398 501.585 33.5608L500.909 29.9618H491.455H482V66.9618V103.962H492H502V77.8628V51.7638L505.072 48.8948C506.761 47.3168 509.729 45.7278 511.668 45.3638C513.607 45.0008 516.984 45.2398 519.174 45.8958C525.597 47.8198 526 49.7718 526 78.9298V103.962H536H546L545.994 75.7118C545.991 59.8728 545.547 45.8728 544.984 43.8438C544.431 41.8548 542.954 38.7048 541.701 36.8438C540.448 34.9838 537.564 32.4358 535.293 31.1818C532.734 29.7688 528.754 28.7108 524.831 28.4008C520.157 28.0308 517.125 28.3918 513.248 29.7778ZM158.044 30.2118C158.068 30.3498 163.632 46.8868 170.408 66.9618L182.73 103.462L192.72 103.745L202.71 104.029L215.217 67.2448L227.724 30.4618L217.231 30.1768C211.459 30.0198 206.564 30.0638 206.353 30.2758C206.142 30.4868 203.212 40.7398 199.843 53.0608C196.474 65.3808 193.443 75.7728 193.108 76.1528C192.774 76.5328 189.617 66.2958 186.094 53.4028L179.687 29.9618H168.844C162.88 29.9618 158.02 30.0738 158.044 30.2118ZM241 66.9618V103.962H251.5H262V66.9618V29.9618H251.5H241V66.9618ZM358 66.9618V103.962H368.5H379V66.9618V29.9618H368.5H358V66.9618ZM438.102 47.2248C439.971 48.4698 442.4 51.2818 443.5 53.4748C445.108 56.6808 445.495 59.4208 445.473 67.4618C445.454 74.7648 445.008 78.2708 443.818 80.4618C442.923 82.1118 441.037 84.5388 439.628 85.8558C437.88 87.4888 435.545 88.3798 432.283 88.6608C428.656 88.9738 426.698 88.5698 424.182 86.9908C422.165 85.7248 420.032 83.0568 418.742 80.1848C417.099 76.5268 416.627 73.5158 416.647 66.8308C416.668 59.7528 417.107 57.3238 419.087 53.3308C420.732 50.0108 422.614 47.9058 425 46.7138C426.925 45.7518 429.896 44.9638 431.602 44.9638C433.308 44.9628 436.233 45.9798 438.102 47.2248ZM572.378 84.3988C570.661 85.1458 568.524 86.8038 567.628 88.0818C566.733 89.3608 566 91.9038 566 93.7338C566 95.5638 566.641 98.3008 567.425 99.8168C568.209 101.333 570.03 103.11 571.472 103.767C572.914 104.424 575.67 104.962 577.597 104.962C579.523 104.962 582.339 104.321 583.855 103.537C585.371 102.753 587.148 100.932 587.805 99.4898C588.462 98.0478 589 95.4138 589 93.6368C589 91.8608 588.266 89.3588 587.369 88.0788C586.472 86.7978 584.237 85.1228 582.401 84.3558C580.566 83.5888 578.262 82.9798 577.282 83.0008C576.302 83.0228 574.095 83.6518 572.378 84.3988Z" fill="#FAFAFA"/>
</svg>
