<svg width="314" height="314" viewBox="0 0 314 314" fill="none" xmlns="http://www.w3.org/2000/svg">
<path fill-rule="evenodd" clip-rule="evenodd" d="M216.999 79.459C212.874 80.742 208.261 82.276 206.749 82.868C204.221 83.858 203.999 84.382 203.999 89.349C203.999 94.327 203.782 94.834 201.249 95.785C196.797 97.456 175.757 104.368 157.999 109.993C148.924 112.867 138.349 116.257 134.499 117.526C130.649 118.795 121.424 121.7 113.999 123.982C106.574 126.264 98.699 128.728 96.499 129.457C94.299 130.185 88.674 131.931 83.999 133.335C79.324 134.74 71.337 137.151 66.25 138.692L57.002 141.495L57 152.852C56.999 163.273 57.143 164.15 58.749 163.498C59.711 163.107 61.624 162.419 62.999 161.97C64.374 161.521 74.724 157.944 85.999 154.02C97.274 150.097 115.724 143.814 126.999 140.057C138.274 136.301 156.949 130.229 168.499 126.566C180.049 122.902 191.299 119.318 193.499 118.602C195.699 117.887 199.074 116.821 200.999 116.235C202.924 115.649 210.349 113.354 217.499 111.135C224.649 108.916 236.349 105.356 243.499 103.224L256.499 99.347L256.782 88.171C256.937 82.024 256.937 76.997 256.782 77C256.626 77.002 249.352 79.448 240.616 82.434L224.733 87.864L225.294 82.43C225.602 79.441 225.55 77.025 225.177 77.061C224.804 77.097 221.124 78.176 216.999 79.459ZM214.499 124.392L204.499 127.647L204.23 150.321L203.961 172.995H187.98H171.999V155.995C171.999 141.808 171.759 138.995 170.548 138.995C169.751 138.995 164.744 140.425 159.422 142.173L149.747 145.352L150.461 162.605C150.854 172.095 150.849 188.439 150.45 198.927L149.724 217.995H132.361H114.999V187.495C114.999 170.72 114.73 156.995 114.401 156.995C114.072 156.995 109.235 158.387 103.651 160.088L93.499 163.182V200.088V236.995H132.749H171.999V213.995V190.995H187.999H203.999V213.995V236.995H215.078H226.158L225.429 233.745C225.029 231.958 224.713 207.75 224.727 179.95C224.742 152.15 225.074 127.512 225.464 125.2C225.855 122.887 225.798 121.027 225.337 121.066C224.876 121.105 219.999 122.602 214.499 124.392Z" fill="#FAFAFA"/>
</svg>
