<svg width="480" height="137" viewBox="0 0 480 137" fill="none" xmlns="http://www.w3.org/2000/svg">
<path fill-rule="evenodd" clip-rule="evenodd" d="M237.91 4.24999C235.378 6.18799 232.622 9.61499 231.082 12.741L228.5 17.982L223.315 17.991C220.463 17.996 216.863 18.478 215.315 19.061C211.228 20.602 206 26.01 206 28.696C206 31.407 206.574 31.494 211.346 29.5C213.32 28.675 216.638 28.034 218.718 28.076L222.5 28.152L219.239 29.335C214.421 31.082 208.985 35.791 207.397 39.593C205.561 43.987 205.586 51.411 207.442 52.952C208.628 53.936 209.246 53.437 210.933 50.132C213.397 45.301 218.423 41.257 223.084 40.356C226.402 39.714 226.451 39.75 224.788 41.634C222.162 44.609 220 50.523 220.004 54.718C220.008 59.429 223.249 65 225.985 65C227.687 65 228.002 64.34 228.01 60.75C228.02 56.084 232.563 45.089 233.863 46.582C235.434 48.385 237 55.828 237 61.488C237 66.35 237.221 67.062 238.421 66.065C239.588 65.097 239.746 65.257 239.301 66.958C239.003 68.098 238.363 69.276 237.879 69.575C237.396 69.873 237 72.368 237 75.118C237 78.197 237.384 79.881 238 79.5C239.39 78.641 239.248 79.673 237.617 82.285C236.856 83.503 235.994 86.446 235.702 88.824C235.277 92.283 235.454 93.04 236.585 92.606C238.422 91.901 238.386 92.756 236.5 94.643C234.411 96.732 234.628 99.731 236.96 100.978C238.037 101.555 240.962 102.307 243.46 102.65C247.2 103.162 248 102.992 248 101.686C248 100.813 247.212 99.641 246.25 99.08C244.672 98.161 244.713 98.058 246.662 98.03C248.409 98.006 248.958 97.207 249.521 93.875C250.126 90.293 249.901 89.469 247.812 87.625C246.488 86.456 246.008 85.908 246.745 86.408C249.061 87.977 250.305 85.522 249.595 80.783C249.047 77.128 248.455 76.233 245.97 75.295C244.336 74.678 243 73.633 243 72.972C243 72.137 243.728 72.247 245.385 73.333C246.697 74.193 248.025 74.641 248.337 74.33C249.68 72.987 246.39 61.007 244.672 60.985C243.777 60.973 243.777 60.793 244.671 60.225C245.552 59.664 245.444 57.815 244.234 52.76C243.35 49.064 242.941 45.726 243.326 45.341C244.457 44.21 250.673 47.658 255.466 52.075C260.309 56.54 262 56.497 262 51.909C262 47.033 259.553 42.629 254.38 38.195L249.5 34.013L254.5 34.028C257.314 34.037 261.406 34.909 263.859 36.022C269.252 38.469 269 38.491 269 35.577C269 30.048 260.712 24.066 252.849 23.919L248.5 23.838L251.5 22.464C253.15 21.708 255.4 21.063 256.5 21.03C262.37 20.852 261.835 16.571 255.738 14.929C252.031 13.931 248.706 14.124 242.079 15.72C239.701 16.292 239.722 16.189 243.329 9.73899C245.348 6.12899 247 2.68599 247 2.08799C247 -0.0960141 242.048 1.08199 237.91 4.24999ZM1.24999 117.08C3.82599 118.581 3.82599 133.419 1.24999 134.92C-0.130006 135.724 0.440994 135.946 3.94999 135.97C7.41099 135.993 8.13299 135.733 7.19999 134.8C6.53999 134.14 5.99999 132.115 5.99999 130.3C5.99999 127.318 6.28199 127 8.92899 127C14.507 127 16.841 121.841 13 118C11.454 116.454 9.69399 116.007 5.24999 116.03C0.855994 116.054 -0.0870063 116.301 1.24999 117.08ZM39.452 119.461C38.164 122.544 33.407 132.925 32.217 135.25C32.006 135.662 33.026 136 34.484 136C36.7 136 37.028 135.664 36.485 133.952C35.604 131.178 37.636 129 41.103 129C43.301 129 44.104 129.565 44.575 131.443C44.912 132.787 44.894 134.362 44.535 134.943C44.123 135.61 45.195 136 47.441 136C51.319 136 51.709 135.482 49.642 133.079C48.895 132.21 47.015 128.215 45.464 124.199C43.913 120.183 42.265 116.664 41.801 116.377C41.337 116.091 40.28 117.478 39.452 119.461ZM71.8 117.2C73.403 118.803 73.403 133.197 71.8 134.8C70.867 135.733 72.206 136 77.825 136C84.712 136 85.096 135.877 86.053 133.361C87.303 130.073 86.563 129.08 85.016 131.971C84.105 133.672 83.111 134.05 80.185 133.806L76.5 133.5L76.202 126.022C75.955 119.846 76.206 118.322 77.643 117.272C79.147 116.172 78.79 116 74.991 116C71.576 116 70.867 116.267 71.8 117.2ZM106.8 117.2C108.403 118.803 108.403 133.197 106.8 134.8C105.867 135.733 106.356 136 109 136C111.644 136 112.133 135.733 111.2 134.8C110.508 134.108 110.037 131.037 110.087 127.55L110.174 121.5L113.74 129L117.305 136.5L120.653 129.52L124 122.54V128.07C124 131.111 123.46 134.14 122.8 134.8C121.867 135.733 122.578 136 126 136C129.422 136 130.133 135.733 129.2 134.8C127.597 133.197 127.597 118.803 129.2 117.2C130.133 116.267 129.786 116 127.638 116C125.185 116 124.497 116.813 121.504 123.25L118.133 130.5L114.917 123.25C111.94 116.537 111.476 116 108.651 116C106.278 116 105.867 116.267 106.8 117.2ZM174.721 117.959C174.095 120.351 175.523 121.685 176.364 119.494C176.679 118.672 177.851 118 178.969 118C180.837 118 181 118.626 181 125.8C181 130.533 180.528 134.072 179.8 134.8C178.867 135.733 179.467 136 182.5 136C185.533 136 186.133 135.733 185.2 134.8C184.472 134.072 184 130.533 184 125.8C184 118.497 184.136 118 186.14 118C187.317 118 188.905 118.787 189.669 119.75C190.945 121.356 191.036 121.295 190.779 119C190.512 116.606 190.178 116.488 182.877 116.21C175.92 115.946 175.207 116.099 174.721 117.959ZM210.8 117.2C211.523 117.923 212 121.422 212 126C212 130.578 211.523 134.077 210.8 134.8C209.867 135.733 210.561 136 213.922 136C217.564 136 218.057 135.774 217.054 134.565C216.399 133.776 216.007 131.639 216.182 129.815L216.5 126.5L219.943 131.25C222.334 134.55 224.09 136 225.693 136C226.962 136 228 135.55 228 135C228 134.45 227.573 134 227.051 134C226.529 134 224.924 132.455 223.484 130.567L220.865 127.135L222.933 125.067C227.679 120.321 223.936 116 215.077 116C210.817 116 209.867 116.267 210.8 117.2ZM248.25 117.08C249.683 117.915 250 119.531 250 126C250 132.459 249.681 134.091 248.25 134.946C246.953 135.721 248.572 135.928 254.5 135.746C262.192 135.509 262.514 135.404 262.852 133.003C263.191 130.595 263.135 130.568 261.273 132.253C260.211 133.214 257.915 134 256.171 134C253.138 134 253 133.826 253 130C253 126.426 253.26 126 255.441 126C256.784 126 258.16 126.45 258.5 127C259.639 128.842 261 128.025 261 125.5C261 122.975 259.639 122.158 258.5 124C258.16 124.55 256.784 125 255.441 125C253.318 125 253 124.544 253 121.5C253 118.176 253.174 118 256.45 118C258.681 118 260.261 118.618 260.92 119.75C261.791 121.246 261.944 121.101 261.97 118.75L262 116L254.25 116.03C248.497 116.053 246.951 116.323 248.25 117.08ZM283.751 117.151C285.4 118.8 285.44 133.16 283.8 134.8C282.867 135.733 284.192 136 289.765 136C296.004 136 297.074 135.731 298.046 133.914C299.465 131.262 298.401 130.07 296.696 132.402C295.797 133.63 294.374 134.059 291.956 133.829C288.736 133.522 288.5 133.261 288.5 130C288.5 127.049 288.883 126.446 290.944 126.155C292.446 125.943 293.891 126.498 294.694 127.596C295.851 129.179 296 128.94 296 125.5C296 122.06 295.851 121.821 294.694 123.404C293.891 124.502 292.446 125.057 290.944 124.845C289.006 124.571 288.435 123.827 288.187 121.25C287.884 118.112 288.001 118 291.576 118C293.907 118 295.795 118.649 296.669 119.75C297.945 121.356 298.036 121.295 297.779 119C297.512 116.611 297.166 116.487 290.001 116.201C284.006 115.962 282.753 116.153 283.751 117.151ZM347.484 118.26C345.547 119.926 344.662 121.818 344.295 125.079C343.86 128.937 344.177 130.057 346.482 132.796C348.618 135.335 349.943 136 352.866 136C356.648 136 361 133.747 361 131.788C361 131.184 360.177 131.435 359.171 132.345C356.49 134.772 351.446 134.474 349.557 131.777C347.087 128.251 347.556 122.353 350.544 119.365C352.045 117.864 353.719 117.062 354.626 117.41C355.472 117.735 356.562 118 357.05 118C357.537 118 358.607 119.238 359.428 120.75L360.92 123.5L360.96 119.904L361 116.309L355.582 116.132C351.207 115.989 349.648 116.398 347.484 118.26ZM381.8 117.2C383.403 118.803 383.403 133.197 381.8 134.8C380.867 135.733 381.561 136 384.922 136C388.564 136 389.057 135.774 388.054 134.565C387.399 133.776 387.007 131.639 387.182 129.815L387.5 126.5L390.943 131.25C393.639 134.971 394.993 136 397.193 136H400L396 132C393.8 129.8 392 127.65 392 127.222C392 126.794 392.9 125.674 394 124.732C395.1 123.79 396 122.34 396 121.51C396 118.141 392.23 116 386.3 116C381.867 116 380.867 116.267 381.8 117.2ZM418.75 116.662C420.433 117.341 420.477 133.123 418.8 134.8C417.867 135.733 419.287 136 425.193 136C431.194 136 432.913 135.668 433.393 134.418C434.509 131.509 434.017 130.674 432.171 132.345C431.165 133.255 428.915 134 427.171 134C424.138 134 424 133.826 424 130C424 126.422 424.258 126 426.45 126C427.798 126 429.359 126.787 429.92 127.75C430.734 129.148 430.939 128.695 430.939 125.5C430.939 122.305 430.734 121.852 429.92 123.25C429.359 124.213 427.798 125 426.45 125C424.317 125 424 124.548 424 121.5C424 118.176 424.174 118 427.45 118C429.681 118 431.261 118.618 431.92 119.75C432.791 121.246 432.944 121.101 432.97 118.75L433 116L425.25 116.079C420.988 116.122 418.063 116.385 418.75 116.662ZM454 116.941C454 117.459 454.415 118.138 454.921 118.451C455.428 118.765 457.038 122.611 458.5 127C459.962 131.389 461.535 135.212 461.996 135.497C462.457 135.782 463.596 133.722 464.527 130.918C466.357 125.41 467.108 125.464 468.952 131.236C469.609 133.291 470.506 135.195 470.946 135.467C471.386 135.739 472.986 132.482 474.502 128.231C476.018 123.979 477.885 119.488 478.652 118.25C479.985 116.098 479.909 116 476.901 116C474.416 116 473.984 116.276 474.845 117.314C475.643 118.275 475.49 120.019 474.277 123.814C473.365 126.666 472.34 129 472 129C471.66 129 470.635 126.666 469.723 123.814C468.51 120.019 468.357 118.275 469.155 117.314C470.021 116.27 469.5 116 466.622 116C462.514 116 462.411 116.172 464.553 119.441C465.963 121.592 465.953 122.165 464.448 125.655L462.789 129.5L460.942 124.209C459.926 121.299 459.346 118.262 459.654 117.459C460.071 116.373 459.419 116 457.107 116C455.398 116 454 116.423 454 116.941ZM10.611 120.585C11.039 122.292 10.739 123.69 9.72599 124.703C7.56999 126.859 5.99999 125.485 5.99999 121.441C5.99999 118.678 6.38999 118 7.98099 118C9.27699 118 10.186 118.893 10.611 120.585ZM220.515 120.048C221.232 122.308 219.527 125 217.378 125C216.47 125 216 123.806 216 121.5C216 118.707 216.391 118 217.933 118C219.002 118 220.156 118.915 220.515 120.048ZM391.515 120.048C392.232 122.308 390.527 125 388.378 125C387.47 125 387 123.806 387 121.5C387 118.707 387.391 118 388.933 118C390.002 118 391.156 118.915 391.515 120.048ZM42.455 125.75C43.034 127.667 42.763 128 40.619 128C38.245 128 38.164 127.828 39.176 124.924C40.298 121.707 41.31 121.962 42.455 125.75Z" fill="url(#paint0_linear_11026_586)"/>
<defs>
<linearGradient id="paint0_linear_11026_586" x1="240.017" y1="0.971497" x2="240.017" y2="136.5" gradientUnits="userSpaceOnUse">
<stop stop-color="#FBFBFB"/>
<stop offset="0.494792" stop-color="white"/>
<stop offset="1" stop-color="#FDFDFD"/>
</linearGradient>
</defs>
</svg>
