<svg width="533" height="59" viewBox="0 0 533 59" fill="none" xmlns="http://www.w3.org/2000/svg">
<path d="M262.123 58.4959L288.65 0.44812H278.339L251.812 58.4959H262.123Z" fill="url(#paint0_linear_11026_592)"/>
<path d="M261.7 18.975L270.167 0.448059H259.856L251.49 18.7547L261.7 18.975Z" fill="url(#paint1_linear_11026_592)"/>
<path fill-rule="evenodd" clip-rule="evenodd" d="M27.0056 57.8712C42.6785 57.8712 51.1981 51.9235 51.1981 41.2338C51.1981 32.2319 44.7682 26.6861 31.828 24.516L22.8262 23.1497C15.9944 21.9441 13.1009 19.9347 13.1009 15.8357C13.1009 11.817 17.7626 8.76276 25.9607 8.76276H27.2467C35.686 8.76276 40.9907 12.1385 41.8748 18.1665H52.3234C51.1981 6.99454 41.9551 0.00201416 26.6037 0.00201416C10.7701 0.00201416 3.13458 7.55715 3.13458 16.3179C3.13458 26.2843 8.51963 30.4637 21.2991 32.7142L30.0598 34.0805C38.0168 35.4469 41.2318 37.7777 41.2318 41.716C41.2318 46.2973 36.8916 49.1104 27.5682 49.1104H26.2822C16.557 49.1104 10.6897 45.4936 10.4486 38.5011H0C0.160748 51.2805 10.3682 57.8712 27.0056 57.8712ZM111.253 57.0667V48.306H71.2266V32.4724H105.627V23.7116H71.2266V9.56581H110.449V0.805067H61.3406V57.0667H111.253ZM170.343 48.306V57.0667H120.43V0.805067H169.539V9.56581H130.316V23.7116H164.716V32.4724H130.316V48.306H170.343ZM206.125 57.0667C223.968 57.0667 235.22 46.5378 235.22 28.9359C235.22 11.334 223.968 0.805067 206.125 0.805067H179.521V57.0667H206.125ZM189.407 48.3062H205.321C218.502 48.3062 225.254 41.7155 225.254 28.9361C225.254 16.1567 218.502 9.56601 205.321 9.56601H189.407V48.3062Z" fill="url(#paint2_linear_11026_592)"/>
<path fill-rule="evenodd" clip-rule="evenodd" d="M359.65 38.9024C357.882 50.0744 347.675 57.8707 332.163 57.8707C313.114 57.8707 301.219 45.7342 301.219 28.9361C300.977 12.5398 313.677 -0.159238 332.163 0.00150925C348.077 0.00150925 358.043 8.60151 359.65 18.9697H349.202C347.755 12.5398 341.004 8.76226 332.806 8.76226H331.52C318.981 8.76226 311.185 17.6034 311.185 28.9361C311.185 40.3492 318.981 49.1099 331.52 49.1099H332.806C341.245 49.1099 347.594 45.5735 349.202 38.9024H359.65ZM416.731 48.3061V57.0668H368.587V0.805128H378.473V48.3061H416.731ZM445.038 57.8705C461.434 57.8705 470.275 48.9491 470.275 34.8836V0.805128H460.389V34.2406C460.389 43.8855 455.245 49.1098 445.681 49.1098H444.395C434.83 49.1098 429.767 43.8855 429.767 34.2406V0.805128H419.8V34.8836C419.8 49.0294 428.32 57.8705 445.038 57.8705ZM532.982 41.7958C532.982 51.0388 525.106 57.0668 515.139 57.0668H482.508V0.805128H514.175C524.061 0.805128 531.616 6.59204 531.616 15.6743C531.616 21.8631 527.597 26.6855 522.694 28.4537C528.562 29.7397 532.982 34.7229 532.982 41.7958ZM512.969 24.1137H492.394V9.56607H512.969C518.354 9.56607 521.65 12.2988 521.65 16.7193C521.65 21.4614 518.435 24.1137 512.969 24.1137ZM492.394 48.3063H513.532C519.399 48.3063 523.016 45.3325 523.016 40.4296C523.016 35.6072 519.399 32.9549 513.532 32.9549H492.394V48.3063Z" fill="url(#paint3_linear_11026_592)"/>
<defs>
<linearGradient id="paint0_linear_11026_592" x1="270.231" y1="0.44812" x2="270.231" y2="58.4959" gradientUnits="userSpaceOnUse">
<stop stop-color="#FBFBFB"/>
<stop offset="0.494792" stop-color="white"/>
<stop offset="1" stop-color="#FDFDFD"/>
</linearGradient>
<linearGradient id="paint1_linear_11026_592" x1="260.828" y1="0.448059" x2="260.828" y2="18.975" gradientUnits="userSpaceOnUse">
<stop stop-color="#FBFBFB"/>
<stop offset="0.494792" stop-color="white"/>
<stop offset="1" stop-color="#FDFDFD"/>
</linearGradient>
<linearGradient id="paint2_linear_11026_592" x1="117.61" y1="0.00201416" x2="117.61" y2="57.8712" gradientUnits="userSpaceOnUse">
<stop stop-color="#FBFBFB"/>
<stop offset="0.494792" stop-color="white"/>
<stop offset="1" stop-color="#FDFDFD"/>
</linearGradient>
<linearGradient id="paint3_linear_11026_592" x1="417.099" y1="0" x2="417.099" y2="57.8707" gradientUnits="userSpaceOnUse">
<stop stop-color="#FBFBFB"/>
<stop offset="0.494792" stop-color="white"/>
<stop offset="1" stop-color="#FDFDFD"/>
</linearGradient>
</defs>
</svg>
